<?xml version="1.0" encoding="UTF-8"?>
<!-- Generator: Adobe Illustrator 19.1.0, SVG Export Plug-In . SVG Version: 6.00 Build 0)  -->
<!DOCTYPE svg PUBLIC "-//W3C//DTD SVG 1.1//EN" "http://www.w3.org/Graphics/SVG/1.1/DTD/svg11.dtd">
<svg version="1.1" id="Layer_1" xmlns="http://www.w3.org/2000/svg" xmlns:xlink="http://www.w3.org/1999/xlink" x="0px" y="0px" viewBox="0 0 52 52" enable-background="new 0 0 52 52" xml:space="preserve">
<g>
	<path fill="#8A8A8A" d="M26,8C16.1,8,8,16.1,8,26c0,9.9,8.1,18,18,18s18-8.1,18-18C44,16.1,35.9,8,26,8z M26,40   c-7.7,0-14-6.3-14-14c0-7.7,6.3-14,14-14s14,6.3,14,14C40,33.7,33.7,40,26,40z"/>
	<g>
		<path fill="#8A8A8A" d="M22,28h-5c-1.1,0-2-0.9-2-2v0c0-1.1,0.9-2,2-2h5c1.1,0,2,0.9,2,2v0C24,27.1,23.1,28,22,28z"/>
	</g>
	<g>
		<path fill="#8A8A8A" d="M35,28h-5c-1.1,0-2-0.9-2-2v0c0-1.1,0.9-2,2-2h5c1.1,0,2,0.9,2,2v0C37,27.1,36.1,28,35,28z"/>
	</g>
</g>
</svg>