<svg id="Layer_1" data-name="Layer 1" xmlns="http://www.w3.org/2000/svg" viewBox="0 0 200 200"><defs><style>.cls-1{fill:#8a8a8a;}</style></defs><title>Artboard 3</title><path class="cls-1" d="M185.36,34.45a44.72,44.72,0,0,1,11.47,1.49C169.52,20,109.83,10.83,64.3,44.3,48.67,55.42,40,67.39,35.94,84c-.14.56-.27,1.14-.39,1.71-.09.42-.19.84-.27,1.26a65.87,65.87,0,0,0,4.27,40c7.8,17.6-4,37.93-23.24,38.64q-.83,0-1.66,0a44.72,44.72,0,0,1-11.47-1.49c27.31,15.94,76,26.61,132.53-8.36A66.11,66.11,0,0,0,164.06,116c.14-.56.27-1.14.39-1.71.09-.42.19-.84.27-1.26a65.87,65.87,0,0,0-4.27-40c-7.8-17.6,4-37.93,23.24-38.64Q184.52,34.45,185.36,34.45ZM100,126.91a26.67,26.67,0,1,1,26.2-20.19A27.09,27.09,0,0,1,100,126.91Z"/></svg>