<svg id="Layer_1" data-name="Layer 1" xmlns="http://www.w3.org/2000/svg" viewBox="0 0 200 200"><defs><style>.cls-1{fill:#15aadc;}.cls-2{fill:#ffb92f;}.cls-3{fill:#e6e6e6;}.cls-4{fill:#a3a3a3;}</style></defs><title>Artboard 4</title><path class="cls-1" d="M41.78,188.31a2.54,2.54,0,0,1-1.69-.42,3.73,3.73,0,0,1-1.69-5.49l21.13-42.25a4.06,4.06,0,1,1,7.18,3.8L45.58,186.2C44.74,187,43.47,188.31,41.78,188.31Z"/><path class="cls-1" d="M8,188.31a2.54,2.54,0,0,1-1.69-.42,3.73,3.73,0,0,1-1.69-5.49l21.13-42.25a3.73,3.73,0,0,1,5.49-1.69,3.73,3.73,0,0,1,1.69,5.49L11.78,186.2C10.93,187,9.67,188.31,8,188.31Z"/><path class="cls-1" d="M8,154.51a2.54,2.54,0,0,1-1.69-.42,3.73,3.73,0,0,1-1.69-5.49l16.9-33.8A3.73,3.73,0,0,1,27,113.1a3.73,3.73,0,0,1,1.69,5.49l-16.9,33.8C10.93,153.24,9.67,154.51,8,154.51Z"/><path class="cls-1" d="M53.61,117.32,38,148.17c-.85,2.11,0,4.65,1.69,5.49a2.54,2.54,0,0,0,1.69.42,4.06,4.06,0,0,0,3.8-2.54l16.9-33.8c0-.42,0-.42.42-.85H53.61Z"/><polygon class="cls-2" points="187.55 110.56 160.09 110.56 172.76 82.68 124.17 82.68 100.93 133.38 128.4 133.38 105.16 188.31 187.55 110.56"/><path class="cls-3" d="M116.57,78.87l2.11-5.07h67.18l-5.49,11.83-5.07,11a24.87,24.87,0,0,0,12.25-21.13,24.35,24.35,0,0,0-24.08-24.08,24.6,24.6,0,0,0-8,1.27c-.85-17.75-16.06-32.53-34.65-32.53a35,35,0,0,0-32.11,20.7A21.83,21.83,0,0,0,75.16,36.2c-11.83,0-21.55,9.72-21.55,21.13v.85a21.41,21.41,0,0,0-5.49-.85,21.55,21.55,0,0,0,0,43.1h58.31Z"/><path class="cls-1" d="M87.41,117.32,71.78,148.17c-.85,2.11,0,4.65,1.69,5.49a2.54,2.54,0,0,0,1.69.42,4.06,4.06,0,0,0,3.8-2.54l16.9-33.8c0-.42,0-.42.42-.85H87.41Z"/><path class="cls-1" d="M100.93,141.83H92.06L71.78,182.39c-.85,2.11,0,4.65,1.69,5.49a2.54,2.54,0,0,0,1.69.42,4.06,4.06,0,0,0,3.8-2.54l21.13-42.25A1.69,1.69,0,0,0,100.93,141.83Z"/><path class="cls-4" d="M106.85,100.42H48.54a21.55,21.55,0,0,1,0-43.1,24.73,24.73,0,0,1,5.49.85v-.85A21.28,21.28,0,0,1,75.58,36.2,21.83,21.83,0,0,1,89.1,40.85a34,34,0,0,1,31.69-20.7c18.59,0,34.22,14.79,34.65,33.38a24.6,24.6,0,0,1,8-1.27,24.35,24.35,0,0,1,24.08,24.08A24.87,24.87,0,0,1,175.3,97.46l-2.11,4.65h10.14A32.54,32.54,0,0,0,163.47,43.8h-.85a43.39,43.39,0,0,0-76.9-14.37,29.17,29.17,0,0,0-10.56-1.69A30.05,30.05,0,0,0,46.43,48.87a29.73,29.73,0,0,0-27.89,30,30.11,30.11,0,0,0,30,30H103Z"/></svg>