<svg id="Layer_1" data-name="Layer 1" xmlns="http://www.w3.org/2000/svg" viewBox="0 0 200 200"><defs><style>.cls-1{fill:#a3a3a3;}.cls-2{fill:#e6e6e6;}.cls-3{fill:#15aadc;}.cls-4{fill:#008fbf;}</style></defs><title>Artboard 6</title><path class="cls-1" d="M114.8,13.62a46.8,46.8,0,0,0-38,19.6,30.61,30.61,0,0,0-12-2.4A31.79,31.79,0,0,0,34.4,54,32.06,32.06,0,0,0,4,86a31.41,31.41,0,0,0,31.6,31.6h126a34.4,34.4,0,0,0,0-68.8h-2a45.91,45.91,0,0,0-44.8-35.2Z"/><path class="cls-2" d="M35.6,62.42a30.88,30.88,0,0,1,6,.8v-.8a23.31,23.31,0,0,1,23.6-23.2A23.77,23.77,0,0,1,80,44.42a37.38,37.38,0,0,1,34.8-22.8,37.93,37.93,0,0,1,38,36.4,31.2,31.2,0,0,1,8.8-1.6,26.4,26.4,0,0,1,0,52.8H35.6A23.06,23.06,0,0,1,12,86,23.64,23.64,0,0,1,35.6,62.42Z"/><path class="cls-3" d="M81.2,187.22a3.61,3.61,0,0,1-2-.4,4.82,4.82,0,0,1-2.4-6.4l24-52.4a4.83,4.83,0,0,1,8.8,4l-24,52.4A5.43,5.43,0,0,1,81.2,187.22Z"/><path class="cls-3" d="M63.2,168a3,3,0,0,1-2-.4,4.66,4.66,0,0,1-2-6.4L68.8,142a4.74,4.74,0,0,1,8.4,4.4l-9.6,19.2A5,5,0,0,1,63.2,168Z"/><path class="cls-3" d="M30.8,187.22a3.61,3.61,0,0,1-2-.4,4.82,4.82,0,0,1-2.4-6.4l24-52.4a4.83,4.83,0,0,1,8.8,4l-24,52.4A4.92,4.92,0,0,1,30.8,187.22Z"/><path class="cls-4" d="M172.4,168.57,166,164.9l4.59-1.22a2.71,2.71,0,1,0-1.53-5.2l-9.78,2.45-3.67-2.14a6.73,6.73,0,0,0,.31-2.45,5.2,5.2,0,0,0-.31-2.14l3.67-2.14,9.78,2.75h.61a2.94,2.94,0,0,0,2.75-2.14c.31-1.53-.31-3.06-1.83-3.36L166,148.09l6.42-3.67a2.67,2.67,0,1,0-2.75-4.59l-6.42,3.67,1.22-4.89a2.82,2.82,0,1,0-5.5-1.22l-2.45,10.09-3.36,1.83a10.57,10.57,0,0,0-3.67-2.14v-4l7.34-7a2.81,2.81,0,0,0-4-4l-3.67,3.36V127.9a2.75,2.75,0,0,0-5.5,0v7.64l-3.36-3.36a2.81,2.81,0,1,0-4,4l7.34,7v4.28a10.79,10.79,0,0,0-4,2.45l-3.06-1.83L134.18,138a2.82,2.82,0,0,0-5.5,1.22l1.22,4.89-6.42-3.67a2.67,2.67,0,1,0-2.75,4.59l6.42,3.67-4.59,1.53a2.45,2.45,0,0,0-1.83,3.36,2.94,2.94,0,0,0,2.75,2.14h.61l9.78-2.75,3.36,2.14c0,.61-.31.92-.31,1.53a5.2,5.2,0,0,0,.31,2.14l-3.67,2.14-9.78-2.75c-1.53-.31-3.06.31-3.36,1.83s.31,3.06,1.83,3.36l4.59,1.22-6.42,3.67a2.56,2.56,0,0,0-.92,3.67,2.78,2.78,0,0,0,2.45,1.22c.61,0,.92,0,1.22-.31l6.42-3.67-1.22,4.89a2.82,2.82,0,0,0,2.14,3.36h.61a2.94,2.94,0,0,0,2.75-2.14l2.45-10.09,3.67-2.14a10.57,10.57,0,0,0,3.67,2.14v4l-7.34,7a2.61,2.61,0,0,0,0,4,2.64,2.64,0,0,0,1.83.92,2.18,2.18,0,0,0,1.83-.92l3.67-3.36v7.64a2.75,2.75,0,0,0,5.5,0v-7.64l3.67,3.36a2.64,2.64,0,0,0,1.83.92,2.18,2.18,0,0,0,1.83-.92,3.21,3.21,0,0,0,0-4l-7.34-7v-4a6.34,6.34,0,0,0,3.06-1.83l4,2.14,2.45,10.09a2.94,2.94,0,0,0,2.75,2.14H162a2.82,2.82,0,0,0,2.14-3.36l-1.22-4.89,6.42,3.67a1.84,1.84,0,0,0,1.22.31,3.77,3.77,0,0,0,2.45-1.22A2.17,2.17,0,0,0,172.4,168.57ZM146.72,160a4,4,0,1,1,4-4A3.85,3.85,0,0,1,146.72,160Z"/></svg>