<svg id="Layer_1" data-name="Layer 1" xmlns="http://www.w3.org/2000/svg" viewBox="0 0 200 200"><defs><style>.cls-1{fill:#008fbf;}.cls-2{fill:#a3a3a3;}.cls-3{fill:#e6e6e6;}</style></defs><title>Artboard 17</title><circle class="cls-1" cx="100" cy="100" r="4"/><path class="cls-2" d="M114.8,4a46.8,46.8,0,0,0-38,19.6,30.61,30.61,0,0,0-12-2.4A31.79,31.79,0,0,0,34.4,44.4,32.06,32.06,0,0,0,4,76.4,31.41,31.41,0,0,0,35.6,108h126a34.4,34.4,0,0,0,0-68.8h-2A45.91,45.91,0,0,0,114.8,4Z"/><path class="cls-3" d="M35.6,52.8a30.88,30.88,0,0,1,6,.8v-.8A23.31,23.31,0,0,1,65.2,29.6,23.77,23.77,0,0,1,80,34.8,37.38,37.38,0,0,1,114.8,12a37.93,37.93,0,0,1,38,36.4,31.2,31.2,0,0,1,8.8-1.6,26.4,26.4,0,0,1,0,52.8H35.6A23.06,23.06,0,0,1,12,76.4,23.64,23.64,0,0,1,35.6,52.8Z"/><circle class="cls-1" cx="96" cy="168" r="8"/><circle class="cls-1" cx="72" cy="124" r="8"/><circle class="cls-1" cx="36" cy="180" r="8"/><path class="cls-1" d="M185.2,171.6l-8.4-4.8,6-1.6a3.54,3.54,0,0,0-2-6.8L168,161.6l-4.8-2.8a8.81,8.81,0,0,0,.4-3.2,6.81,6.81,0,0,0-.4-2.8L168,150l12.8,3.6h.8a3.84,3.84,0,0,0,3.6-2.8c.4-2-.4-4-2.4-4.4l-6-1.6,8.4-4.8a3.5,3.5,0,1,0-3.6-6l-8.4,4.8,1.6-6.4a3.69,3.69,0,0,0-7.2-1.6L164.4,144l-4.4,2.4a13.83,13.83,0,0,0-4.8-2.8v-5.2l9.6-9.2c1.6-1.2,1.6-3.6,0-5.2-1.2-1.6-3.6-1.6-5.2,0l-4.8,4.4v-10a3.6,3.6,0,0,0-7.2,0v10l-4.4-4.4a3.68,3.68,0,1,0-5.2,5.2l9.6,9.2V144a14.11,14.11,0,0,0-5.2,3.2l-4-2.4-3.2-13.2a3.69,3.69,0,0,0-7.2,1.6l1.6,6.4-8.4-4.8c-1.6-.8-4-.4-4.8,1.2s-.4,4,1.2,4.8l8.4,4.8-6,2a3.2,3.2,0,0,0-2.4,4.4,3.84,3.84,0,0,0,3.6,2.8h.8l12.8-3.6,4.4,2.8c0,.8-.4,1.2-.4,2a6.81,6.81,0,0,0,.4,2.8l-4.8,2.8L121.6,158c-2-.4-4,.4-4.4,2.4s.4,4,2.4,4.4l6,1.6-8.4,4.8A3.35,3.35,0,0,0,116,176a3.64,3.64,0,0,0,3.2,1.6c.8,0,1.2,0,1.6-.4l8.4-4.8-1.6,6.4a3.68,3.68,0,0,0,2.8,4.4h.8a3.84,3.84,0,0,0,3.6-2.8l3.2-13.2,4.8-2.8a13.83,13.83,0,0,0,4.8,2.8v5.2l-9.6,9.2c-1.6,1.2-1.6,3.6,0,5.2a3.46,3.46,0,0,0,2.4,1.2,2.85,2.85,0,0,0,2.4-1.2l4.8-4.4v10a3.6,3.6,0,0,0,7.2,0v-10l4.8,4.4A3.46,3.46,0,0,0,162,188a2.85,2.85,0,0,0,2.4-1.2,4.21,4.21,0,0,0,0-5.2l-9.6-9.2v-5.2a8.3,8.3,0,0,0,4-2.4l5.2,2.8,3.2,13.2a3.84,3.84,0,0,0,3.6,2.8h.8a3.68,3.68,0,0,0,2.8-4.4l-1.6-6.4,8.4,4.8a2.4,2.4,0,0,0,1.6.4,4.94,4.94,0,0,0,3.2-1.6A2.83,2.83,0,0,0,185.2,171.6Zm-33.6-11.2a5.2,5.2,0,1,1,5.2-5.2A5,5,0,0,1,151.6,160.4Z"/><path class="cls-1" d="M46,156l-2-4a10.78,10.78,0,0,0,2.8-3.2,12,12,0,0,0,1.6-4h4.4a4,4,0,1,0,0-8H48.4c-.4-2.8-2-5.2-4-7.6l2.4-4a4,4,0,0,0-6.8-4.4l-2.4,4a15,15,0,0,0-8.4-.4l-2-4c-1.2-2-3.6-2.8-5.2-1.6-2,1.2-2.8,3.6-1.6,5.2l2,4a10.78,10.78,0,0,0-2.8,3.2,12,12,0,0,0-1.6,4H13.6a3.78,3.78,0,0,0-4,4,4.2,4.2,0,0,0,2,3.6c.4.4,1.2.4,2,.8H18c.4,2.8,2,5.2,4,7.6l-2.4,4a4,4,0,0,0,6.8,4.4l2.4-4a15,15,0,0,0,8.4.4l2,4a5.52,5.52,0,0,0,1.2,1.6,3.63,3.63,0,0,0,4,0A4,4,0,0,0,46,156Zm-17.2-8.8a7.49,7.49,0,0,1-2.4-10.8A8.1,8.1,0,0,1,40,145.2C37.2,148.4,32.4,149.6,28.8,147.2Z"/><circle class="cls-1" cx="176" cy="116" r="4"/><circle class="cls-1" cx="68" cy="188" r="4"/><circle class="cls-1" cx="72" cy="156" r="4"/><circle class="cls-1" cx="108" cy="120" r="4"/></svg>