<svg id="Layer_1" data-name="Layer 1" xmlns="http://www.w3.org/2000/svg" viewBox="0 0 200 200"><defs><style>.cls-1{fill:#15aadc;}.cls-2{fill:#e6e6e6;}.cls-3{fill:#a3a3a3;}</style></defs><title>Artboard 19</title><polygon class="cls-1" points="32 116 52 156 72 124 100 196 128 124 148 156 168 116 32 116"/><path class="cls-2" d="M35.6,52.8a30.88,30.88,0,0,1,6,.8v-.8A23.31,23.31,0,0,1,65.2,29.6,23.77,23.77,0,0,1,80,34.8,37.38,37.38,0,0,1,114.8,12a37.93,37.93,0,0,1,38,36.4,31.2,31.2,0,0,1,8.8-1.6,26.4,26.4,0,0,1,0,52.8H35.6A23.06,23.06,0,0,1,12,76.4,23.64,23.64,0,0,1,35.6,52.8Z"/><path class="cls-3" d="M114.8,12a37.93,37.93,0,0,1,38,36.4,31.2,31.2,0,0,1,8.8-1.6,26.4,26.4,0,0,1,0,52.8H35.6A23.06,23.06,0,0,1,12,76.4,23.64,23.64,0,0,1,35.6,52.8a30.88,30.88,0,0,1,6,.8v-.8A23.31,23.31,0,0,1,65.2,29.6,23.77,23.77,0,0,1,80,34.8,37.38,37.38,0,0,1,114.8,12m0-8a46.8,46.8,0,0,0-38,19.6,30.61,30.61,0,0,0-12-2.4A31.79,31.79,0,0,0,34.4,44.4,32.06,32.06,0,0,0,4,76.4,31.41,31.41,0,0,0,35.6,108h126a34.4,34.4,0,0,0,0-68.8h-2A45.91,45.91,0,0,0,114.8,4Z"/></svg>