<svg id="Layer_1" data-name="Layer 1" xmlns="http://www.w3.org/2000/svg" viewBox="0 0 200 200"><defs><style>.cls-1{fill:#bdbdbd;}.cls-2{fill:#f2f2f2;}</style></defs><title>Artboard 21</title><path class="cls-1" d="M26.93,76h4.38A39.32,39.32,0,0,1,38,68h-11a15,15,0,1,1,3.76-29.57c0-.17,0-.33,0-.49A15,15,0,0,1,55.08,26.48a24.3,24.3,0,0,1,46.5,8.71,16.88,16.88,0,0,1,5.62-1,16.66,16.66,0,0,1,12.75,6.05,54.64,54.64,0,0,1,10.42,2,24.84,24.84,0,0,0-22.3-16.06A32.36,32.36,0,0,0,52.12,16.06,23,23,0,0,0,24.05,30.11,23,23,0,0,0,26.93,76Z"/><path class="cls-1" d="M141.33,132a24.18,24.18,0,0,1,24.24,23.19A16.87,16.87,0,1,1,171.2,188H90.93a15,15,0,1,1,3.76-29.57c0-.16,0-.33,0-.49a15,15,0,0,1,24.41-11.45A24.27,24.27,0,0,1,141.33,132m0-8a32.34,32.34,0,0,0-25.21,12.06,23,23,0,0,0-28.07,14.05A23,23,0,0,0,90.93,196H171.2a24.89,24.89,0,0,0,.86-49.76A32.12,32.12,0,0,0,141.33,124Z"/><path class="cls-2" d="M82.49,143.11a31,31,0,0,1,30.78-15.78,40.39,40.39,0,0,1,64.28,11.19,26.48,26.48,0,0,0-24.78-46.08A38.18,38.18,0,0,0,79.69,78.76a23.5,23.5,0,0,0-38.36,18c0,.26,0,.51,0,.77A23.6,23.6,0,1,0,35.47,144H80.12C80.91,143.7,81.66,143.34,82.49,143.11Z"/><path class="cls-2" d="M26.93,68H38a39.46,39.46,0,0,1,35.84-9.49A54.27,54.27,0,0,1,114.67,40c1.78,0,3.54.11,5.28.28a16.66,16.66,0,0,0-12.75-6.05,16.89,16.89,0,0,0-5.62,1,24.3,24.3,0,0,0-46.5-8.71A15,15,0,0,0,30.67,37.93c0,.17,0,.33,0,.49A15,15,0,1,0,26.93,68Z"/><path class="cls-1" d="M80.12,144H35.47a23.62,23.62,0,1,1,5.91-46.47c0-.26,0-.51,0-.77a23.5,23.5,0,0,1,38.36-18,38.18,38.18,0,0,1,73.07,13.68,26.49,26.49,0,0,1,24.78,46.08c.06.12.14.23.2.35a32.57,32.57,0,0,1,8.29,2.87A34.54,34.54,0,0,0,161.6,82.93q-1.05,0-2.1.06a46.26,46.26,0,0,0-82.8-15.2,31.53,31.53,0,0,0-42.33,21A31.63,31.63,0,0,0,35.47,152H68.27A30.78,30.78,0,0,1,80.12,144Z"/></svg>