<svg id="Layer_1" data-name="Layer 1" xmlns="http://www.w3.org/2000/svg" viewBox="0 0 200 200"><defs><style>.cls-1{fill:#8ed1e9;}.cls-2{fill:#008fbf;}</style></defs><title>Artboard 32</title><path class="cls-1" d="M171.31,128.34c-53.94,0-97.83-43.89-97.83-97.37A106.58,106.58,0,0,1,77.14,4,97.67,97.67,0,0,0,4,98.63C4,152.11,47.89,196,101.83,196A97.78,97.78,0,0,0,196,125.14,87,87,0,0,1,171.31,128.34Z"/><path class="cls-2" d="M65.26,17.71a120.47,120.47,0,0,0-.91,12.8c0,59,48,106.51,107,106.51a80.92,80.92,0,0,0,10.51-.46,88.6,88.6,0,0,1-80,50.29c-48.91,0-88.69-39.77-88.69-88.23A88.56,88.56,0,0,1,65.26,17.71M77.14,4A97.67,97.67,0,0,0,4,98.63C4,152.11,47.89,196,101.83,196A97.78,97.78,0,0,0,196,125.14a107.28,107.28,0,0,1-24.69,3.2c-53.94,0-97.83-43.89-97.83-97.37A103.84,103.84,0,0,1,77.14,4Z"/></svg>