<svg id="Layer_1" data-name="Layer 1" xmlns="http://www.w3.org/2000/svg" viewBox="0 0 200 200"><defs><style>.cls-1{fill:#8ed1e9;}.cls-2{fill:#e6e6e6;}.cls-3{fill:#a3a3a3;}.cls-4{fill:#008fbf;}</style></defs><title>Artboard 34</title><path class="cls-1" d="M172.79,119.41c-49.79,0-90.3-40.51-90.3-89.88a98.38,98.38,0,0,1,3.38-24.9A90.15,90.15,0,0,0,18.35,92a85.47,85.47,0,0,0,7.6,35.87,44.6,44.6,0,0,1,32.91-14.77,43.25,43.25,0,0,1,33.76,16H96a36.8,36.8,0,0,1,34.18,50.22A90.3,90.3,0,0,0,196,116.46C188,118.15,180.39,119.41,172.79,119.41Z"/><path class="cls-2" d="M116.67,165.41a21.25,21.25,0,0,0-21.1-21.52,20,20,0,0,0-10.13,2.53A28.54,28.54,0,0,0,30.16,157h-3a14.77,14.77,0,0,0,0,29.54H96a19.88,19.88,0,0,0,7.17-1.69C111.18,182.29,116.67,174.27,116.67,165.41Z"/><path class="cls-3" d="M58.44,128.27A28.35,28.35,0,0,1,85,146.84a21.37,21.37,0,1,1,17.72,38.82,13.87,13.87,0,0,1-7.17,1.69H27.21a14.77,14.77,0,0,1,0-29.54h2.53c0-16.46,13.08-29.54,28.69-29.54m0-8.44a37.1,37.1,0,0,0-36.29,29.54C12,151.9,4,161.19,4,172.16a23.41,23.41,0,0,0,23.21,23.21H96a24.62,24.62,0,0,0,11-2.53,29.9,29.9,0,0,0-11.39-57.39,32.57,32.57,0,0,0-6.33.84,36.9,36.9,0,0,0-30.8-16.46Z"/><path class="cls-4" d="M172.79,119.41c-49.79,0-90.3-40.51-90.3-89.88a98.38,98.38,0,0,1,3.38-24.9A90.15,90.15,0,0,0,18.35,92a85.47,85.47,0,0,0,7.6,35.87,45.17,45.17,0,0,1,6.75-5.91,79,79,0,0,1-5.91-30A81.15,81.15,0,0,1,74.89,17.71,111.2,111.2,0,0,0,74,29.53c0,54.44,44.31,98.32,98.74,98.32a74.7,74.7,0,0,0,9.71-.42C172.37,148.11,153.8,163.3,131.86,170a33.52,33.52,0,0,1-2.53,9.28,90.3,90.3,0,0,0,65.83-62.87A98.46,98.46,0,0,1,172.79,119.41Z"/></svg>