<svg id="Layer_1" data-name="Layer 1" xmlns="http://www.w3.org/2000/svg" viewBox="0 0 200 200"><defs><style>.cls-1{fill:#a3a3a3;}.cls-2{fill:#e6e6e6;}.cls-3{fill:#f83;}.cls-4{fill:#ffb92f;}</style></defs><title>Artboard 35</title><path class="cls-1" d="M55.17,124.6a34.88,34.88,0,0,0-34.12,27.77C11.54,154.74,4,163.47,4,173.79A22,22,0,0,0,25.82,195.6H90.48a23.14,23.14,0,0,0,10.31-2.38,28.11,28.11,0,0,0-10.71-54,30.62,30.62,0,0,0-6,.79,34.69,34.69,0,0,0-29-15.47Z"/><path class="cls-2" d="M109.92,167.44a20,20,0,0,0-19.83-20.23,18.85,18.85,0,0,0-9.52,2.38,26.83,26.83,0,0,0-52,9.92H26.21a13.88,13.88,0,0,0,0,27.77H90.88a18.69,18.69,0,0,0,6.74-1.59A19.57,19.57,0,0,0,109.92,167.44Z"/><path class="cls-3" d="M160.69,99.6,196,70.25l-46.81-4L159.5,22.64,119,45.26,100.79,4.4,82.15,45.26,42.08,22.64,52.4,66.28l-46.81,4L40.89,99.6,5.59,129l19.83,1.59a41.25,41.25,0,0,1,27.37-12.69,47.34,47.34,0,0,1-3.57-18.64,51.57,51.57,0,0,1,103.14,0c0,22.21-13.88,40.86-33.72,48.4a49.37,49.37,0,0,1,4,7.93l36.89,21-10.31-43.64L196,129Z"/><path class="cls-4" d="M100.79,56a43.65,43.65,0,0,0-39.27,62.68,42.07,42.07,0,0,1,25.39,14.28h3.17a35.24,35.24,0,0,1,22.61,8.33A43.45,43.45,0,0,0,100.79,56Z"/></svg>