<svg id="Layer_1" data-name="Layer 1" xmlns="http://www.w3.org/2000/svg" viewBox="0 0 200 200"><defs><style>.cls-1{fill:#a3a3a3;}.cls-2{fill:#e6e6e6;}.cls-3{fill:#15aadc;}</style></defs><title>Artboard 40</title><path class="cls-1" d="M114.8,13.2a46.8,46.8,0,0,0-38,19.6,30.61,30.61,0,0,0-12-2.4A31.79,31.79,0,0,0,34.4,53.6,32.06,32.06,0,0,0,4,85.6a31.41,31.41,0,0,0,31.6,31.6h126a34.4,34.4,0,0,0,0-68.8h-2a45.91,45.91,0,0,0-44.8-35.2Z"/><path class="cls-2" d="M35.6,62a30.88,30.88,0,0,1,6,.8V62A23.31,23.31,0,0,1,65.2,38.8,23.77,23.77,0,0,1,80,44a37.38,37.38,0,0,1,34.8-22.8,37.93,37.93,0,0,1,38,36.4,31.2,31.2,0,0,1,8.8-1.6,26.4,26.4,0,0,1,0,52.8H35.6A23.06,23.06,0,0,1,12,85.6,23.64,23.64,0,0,1,35.6,62Z"/><path class="cls-3" d="M81.2,186.8a3.61,3.61,0,0,1-2-.4,4.82,4.82,0,0,1-2.4-6.4l24-52.4a4.83,4.83,0,0,1,8.8,4L85.6,184A5.43,5.43,0,0,1,81.2,186.8Z"/><path class="cls-3" d="M30.8,186.8a3.61,3.61,0,0,1-2-.4,4.82,4.82,0,0,1-2.4-6.4l24-52.4a4.83,4.83,0,0,1,8.8,4L35.2,184A4.92,4.92,0,0,1,30.8,186.8Z"/><path class="cls-3" d="M131.2,186.8a3.61,3.61,0,0,1-2-.4,4.82,4.82,0,0,1-2.4-6.4l24-52.4a4.83,4.83,0,1,1,8.8,4l-24,52.4A4.92,4.92,0,0,1,131.2,186.8Z"/></svg>