<svg id="Layer_1" data-name="Layer 1" xmlns="http://www.w3.org/2000/svg" viewBox="0 0 200 200"><defs><style>.cls-1{fill:#008fbf;}.cls-2{fill:#a3a3a3;}.cls-3{fill:#e6e6e6;}.cls-4{fill:#f83;}.cls-5{fill:#ffb92f;}</style></defs><title>Artboard 42</title><circle class="cls-1" cx="84.2" cy="144" r="8"/><circle class="cls-1" cx="68.2" cy="188" r="8"/><circle class="cls-1" cx="100.2" cy="192" r="4"/><circle class="cls-1" cx="32.2" cy="192" r="4"/><circle class="cls-1" cx="84.2" cy="168" r="4"/><path class="cls-1" d="M53,173.6l-2-4a10.78,10.78,0,0,0,2.8-3.2,12,12,0,0,0,1.6-4h4.4a4,4,0,1,0,0-8H55.4c-.4-2.8-2-5.2-4-7.6l2.4-4a4,4,0,0,0-6.8-4.4l-2.4,4a15,15,0,0,0-8.4-.4l-2-4c-.8-2-3.2-2.4-5.2-1.6-2,1.2-2.8,3.6-1.6,5.2l2,4a10.78,10.78,0,0,0-2.8,3.2,12,12,0,0,0-1.6,4H20.6a3.78,3.78,0,0,0-4,4,4.2,4.2,0,0,0,2,3.6c.4.4,1.2.4,2,.8H25c.4,2.8,2,5.2,4,7.6l-2.4,4a4,4,0,0,0,6.8,4.4l2.4-4a15,15,0,0,0,8.4.4l2,4a5.52,5.52,0,0,0,1.2,1.6,3.63,3.63,0,0,0,4,0A5,5,0,0,0,53,173.6Zm-17.6-8.4a8.1,8.1,0,1,1,11.2-2.4A8.3,8.3,0,0,1,35.4,165.2Z"/><path class="cls-1" d="M182.2,171.6l-8.4-4.8,6-1.6a3.54,3.54,0,0,0-2-6.8L165,161.6l-4.8-2.8a8.81,8.81,0,0,0,.4-3.2,6.81,6.81,0,0,0-.4-2.8L165,150l12.8,3.6h.8a3.84,3.84,0,0,0,3.6-2.8c.4-2-.4-4-2.4-4.4l-6-1.6,8.4-4.8a3.5,3.5,0,1,0-3.6-6l-8.4,4.8,1.6-6.4a3.69,3.69,0,1,0-7.2-1.6L161.4,144l-4.8,2.8a13.83,13.83,0,0,0-4.8-2.8v-5.2l9.6-9.2c1.6-1.2,1.6-3.6,0-5.2-1.2-1.6-3.6-1.6-5.2,0l-4.8,4.4v-10a3.6,3.6,0,0,0-7.2,0v10l-4-4.8a3.68,3.68,0,1,0-5.2,5.2l9.6,9.2V144a14.11,14.11,0,0,0-5.2,3.2l-4-2.4-3.2-13.2a3.69,3.69,0,0,0-7.2,1.6l1.6,6.4-8.4-4.8c-1.6-.8-4-.4-4.8,1.2s-.4,4,1.2,4.8l8.4,4.8-6,2a3.2,3.2,0,0,0-2.4,4.4,3.84,3.84,0,0,0,3.6,2.8h.8l12.8-3.6,4.4,2.8c0,.8-.4,1.2-.4,2a6.81,6.81,0,0,0,.4,2.8l-4.8,2.8L118.6,158c-2-.4-4,.4-4.4,2.4s.4,4,2.4,4.4l6,1.6-8.4,4.8A3.35,3.35,0,0,0,113,176a3.64,3.64,0,0,0,3.2,1.6c.8,0,1.2,0,1.6-.4l8.4-4.8-1.6,6.4a3.68,3.68,0,0,0,2.8,4.4h.8a3.84,3.84,0,0,0,3.6-2.8l3.2-13.2,4.8-2.8a13.83,13.83,0,0,0,4.8,2.8v5.2l-9.6,9.2c-1.6,1.2-1.6,3.6,0,5.2a3.46,3.46,0,0,0,2.4,1.2,2.85,2.85,0,0,0,2.4-1.2l4.8-4.4v10a3.6,3.6,0,0,0,7.2,0v-10l4.8,4.4A3.46,3.46,0,0,0,159,188a2.85,2.85,0,0,0,2.4-1.2,4.21,4.21,0,0,0,0-5.2l-9.6-9.2v-5.2a8.3,8.3,0,0,0,4-2.4l5.2,2.8,3.2,13.2a3.84,3.84,0,0,0,3.6,2.8h.8a3.68,3.68,0,0,0,2.8-4.4l-1.6-6.4,8.4,4.8a2.4,2.4,0,0,0,1.6.4,4.94,4.94,0,0,0,3.2-1.6A3,3,0,0,0,182.2,171.6Zm-33.6-11.2a5.2,5.2,0,1,1,5.2-5.2C153.4,158.4,151.4,160.4,148.6,160.4Z"/><path class="cls-2" d="M127.4,120H52.2a20.15,20.15,0,0,1-20-20.4c0-11.2,9.2-20.4,20-20.4a23.41,23.41,0,0,1,5.2.8v-.8a20.06,20.06,0,0,1,20-20,20.67,20.67,0,0,1,12.8,4.4,33,33,0,0,1,30-19.6L153,75.2a23.29,23.29,0,0,1,7.6-1.2,22.86,22.86,0,0,1,7.6,44.4l8.4,4.8a30.75,30.75,0,0,0-16.4-56.8h-.8a40.46,40.46,0,0,0-39.6-30A41.3,41.3,0,0,0,86.6,53.2a27.62,27.62,0,0,0-10-1.6,28.45,28.45,0,0,0-27.2,20A28.15,28.15,0,0,0,23,100c0,15.6,12.8,28.4,28,28.4h60.4Z"/><path class="cls-3" d="M149,108l19.2,10.4A22.86,22.86,0,0,0,160.6,74a23.29,23.29,0,0,0-7.6,1.2A32.64,32.64,0,0,0,120.2,44a32.18,32.18,0,0,0-30,19.6,20.67,20.67,0,0,0-12.8-4.4,19.81,19.81,0,0,0-20,20V80a20.27,20.27,0,0,0-5.2-.8,20.15,20.15,0,0,0-20,20.4c0,11.2,9.2,20.4,20,20.4h75.2Z"/><path class="cls-4" d="M25.8,74.8a58.49,58.49,0,0,1,7.6-6.4,28.41,28.41,0,0,1-3.2-27.6A29.11,29.11,0,0,1,56.6,23.2a28.23,28.23,0,0,1,11.2,2.4A28.72,28.72,0,0,1,84.2,44a49.22,49.22,0,0,1,17.6-12L81.4,28,77,4.4,57,17.6,37.4,4,32.6,27.2,9.4,31.6l13.2,20L9,71.2Z"/><path class="cls-5" d="M41,65.2a11.68,11.68,0,0,1,3.6-.8A36.65,36.65,0,0,1,75.8,43.6,19.67,19.67,0,0,0,65,33.2a17.91,17.91,0,0,0-8-1.6A20.39,20.39,0,0,0,37.8,44.4a22.08,22.08,0,0,0,0,16C38.6,61.6,39.8,63.6,41,65.2Z"/></svg>