<svg id="Layer_1" data-name="Layer 1" xmlns="http://www.w3.org/2000/svg" viewBox="0 0 200 200"><defs><style>.cls-1{fill:#8a8a8a;}</style></defs><title>Artboard 45</title><path class="cls-1" d="M100,56.09A43.91,43.91,0,1,0,143.91,100,44,44,0,0,0,100,56.09Zm0,78.06A34.15,34.15,0,1,1,134.15,100,34.25,34.25,0,0,1,100,134.15Z"/><path class="cls-1" d="M90.24,104.88H78A4.89,4.89,0,0,1,73.17,100h0A4.89,4.89,0,0,1,78,95.12h12.2A4.89,4.89,0,0,1,95.12,100h0A4.89,4.89,0,0,1,90.24,104.88Z"/><path class="cls-1" d="M122,104.88h-12.2a4.89,4.89,0,0,1-4.88-4.88h0a4.89,4.89,0,0,1,4.88-4.88H122a4.89,4.89,0,0,1,4.88,4.88h0A4.89,4.89,0,0,1,122,104.88Z"/></svg>