<svg id="Layer_1" data-name="Layer 1" xmlns="http://www.w3.org/2000/svg" viewBox="0 0 200 200"><defs><style>.cls-1{fill:#8ed1e9;}.cls-2{fill:#15aadc;}.cls-3{fill:#e6e6e6;}.cls-4{fill:#a3a3a3;}.cls-5{fill:#008fbf;}</style></defs><title>Artboard 46</title><path class="cls-1" d="M184.07,63.83a46.32,46.32,0,0,1-46.51-46.51,44.8,44.8,0,0,1,2-12.72,46.39,46.39,0,0,0-33.79,35.78C119.68,44,131.6,53.89,136.77,67A36.78,36.78,0,0,1,167,93.24c13.91-5.17,25-16.7,29-31A41,41,0,0,1,184.07,63.83Z"/><path class="cls-2" d="M61.24,195.4a2.39,2.39,0,0,1-1.59-.4,4.06,4.06,0,0,1-2-5.57l21.47-46.91a4.18,4.18,0,1,1,7.55,3.58L65.22,193A4.37,4.37,0,0,1,61.24,195.4Z"/><path class="cls-2" d="M90.26,178.31a3.58,3.58,0,0,1-2-.4,4.57,4.57,0,0,1-2-5.57L95,155.25a4.18,4.18,0,1,1,7.55,3.58l-8.75,17.09A3.48,3.48,0,0,1,90.26,178.31Z"/><path class="cls-2" d="M45.34,178.31a3.58,3.58,0,0,1-2-.4,4.57,4.57,0,0,1-2-5.57l8.75-17.09a4.57,4.57,0,0,1,5.57-2,4.57,4.57,0,0,1,2,5.57l-8.75,17.09A3.48,3.48,0,0,1,45.34,178.31Z"/><path class="cls-2" d="M16.32,195.4a2.39,2.39,0,0,1-1.59-.4,4.06,4.06,0,0,1-2-5.57l21.47-46.91a4.18,4.18,0,1,1,7.55,3.58L20.3,193A4.37,4.37,0,0,1,16.32,195.4Z"/><path class="cls-2" d="M106.16,195.4a2.39,2.39,0,0,1-1.59-.4,4.06,4.06,0,0,1-2-5.57L124,142.53a4.18,4.18,0,0,1,7.55,3.58L110.14,193A4.37,4.37,0,0,1,106.16,195.4Z"/><path class="cls-3" d="M31,86.88a20,20,0,0,1,4.77.8v-.8A18.66,18.66,0,0,1,54.48,68.2a18.35,18.35,0,0,1,11.93,4.37A30.63,30.63,0,0,1,94.24,54.29a30,30,0,0,1,30.21,29,20.79,20.79,0,0,1,7.16-1.19,21.07,21.07,0,0,1,0,42.14H31a18.92,18.92,0,0,1-18.68-18.68A18.66,18.66,0,0,1,31,86.88Z"/><path class="cls-4" d="M93.84,54.29A30,30,0,0,1,124,83.3a20.79,20.79,0,0,1,7.16-1.19,21.07,21.07,0,0,1,0,42.14H30.63A18.92,18.92,0,0,1,12,105.57,18.66,18.66,0,0,1,30.63,86.88a20,20,0,0,1,4.77.8v-.8A18.66,18.66,0,0,1,54.09,68.2,18.35,18.35,0,0,1,66,72.57,30.63,30.63,0,0,1,93.84,54.29m0-8a39,39,0,0,0-31,15.5,20.22,20.22,0,0,0-8.75-1.59A26.61,26.61,0,0,0,28.65,78.93a26.67,26.67,0,0,0,2,53.27H131.2a29,29,0,0,0,0-58h-.4c-4.37-16.3-19.08-27.83-37-27.83Z"/><path class="cls-5" d="M184.07,63.83a46.32,46.32,0,0,1-46.51-46.51,44.8,44.8,0,0,1,2-12.72,46.39,46.39,0,0,0-33.79,35.78,42.38,42.38,0,0,1,7.55,2.78A39.86,39.86,0,0,1,130,17.71c0,29.42,23.85,53.27,52.87,54.06A40,40,0,0,1,163.8,86.09,43.08,43.08,0,0,1,167,93.64c13.91-5.17,25-16.7,29-31A60.67,60.67,0,0,1,184.07,63.83Z"/></svg>