<?xml version="1.0" encoding="utf-8"?>
<svg id="Layer_1" data-name="Layer 1" viewBox="0 0 200 200" xmlns="http://www.w3.org/2000/svg">
  <defs>
    <style>.cls-1{fill:#8ed1e9;}.cls-2{fill:#15aadc;}.cls-3{fill:#e6e6e6;}.cls-4{fill:#a3a3a3;}.cls-5{fill:#008fbf;}</style>
  </defs>
  <title>Artboard 46</title>
  <path class="cls-2" d="M61.24,195.4a2.39,2.39,0,0,1-1.59-.4,4.06,4.06,0,0,1-2-5.57l21.47-46.91a4.18,4.18,0,1,1,7.55,3.58L65.22,193A4.37,4.37,0,0,1,61.24,195.4Z"/>
  <path class="cls-2" d="M90.26,178.31a3.58,3.58,0,0,1-2-.4,4.57,4.57,0,0,1-2-5.57L95,155.25a4.18,4.18,0,1,1,7.55,3.58l-8.75,17.09A3.48,3.48,0,0,1,90.26,178.31Z"/>
  <path class="cls-2" d="M45.34,178.31a3.58,3.58,0,0,1-2-.4,4.57,4.57,0,0,1-2-5.57l8.75-17.09a4.57,4.57,0,0,1,5.57-2,4.57,4.57,0,0,1,2,5.57l-8.75,17.09A3.48,3.48,0,0,1,45.34,178.31Z"/>
  <path class="cls-2" d="M16.32,195.4a2.39,2.39,0,0,1-1.59-.4,4.06,4.06,0,0,1-2-5.57l21.47-46.91a4.18,4.18,0,1,1,7.55,3.58L20.3,193A4.37,4.37,0,0,1,16.32,195.4Z"/>
  <path class="cls-2" d="M106.16,195.4a2.39,2.39,0,0,1-1.59-.4,4.06,4.06,0,0,1-2-5.57L124,142.53a4.18,4.18,0,0,1,7.55,3.58L110.14,193A4.37,4.37,0,0,1,106.16,195.4Z"/>
  <path class="cls-3" d="M31,86.88a20,20,0,0,1,4.77.8v-.8A18.66,18.66,0,0,1,54.48,68.2a18.35,18.35,0,0,1,11.93,4.37A30.63,30.63,0,0,1,94.24,54.29a30,30,0,0,1,30.21,29,20.79,20.79,0,0,1,7.16-1.19,21.07,21.07,0,0,1,0,42.14H31a18.92,18.92,0,0,1-18.68-18.68A18.66,18.66,0,0,1,31,86.88Z"/>
  <path class="cls-4" d="M93.84,54.29A30,30,0,0,1,124,83.3a20.79,20.79,0,0,1,7.16-1.19,21.07,21.07,0,0,1,0,42.14H30.63A18.92,18.92,0,0,1,12,105.57,18.66,18.66,0,0,1,30.63,86.88a20,20,0,0,1,4.77.8v-.8A18.66,18.66,0,0,1,54.09,68.2,18.35,18.35,0,0,1,66,72.57,30.63,30.63,0,0,1,93.84,54.29m0-8a39,39,0,0,0-31,15.5,20.22,20.22,0,0,0-8.75-1.59A26.61,26.61,0,0,0,28.65,78.93a26.67,26.67,0,0,0,2,53.27H131.2a29,29,0,0,0,0-58h-.4c-4.37-16.3-19.08-27.83-37-27.83Z"/>
  <path class="cls-2" d="M 166.772 33.087 C 166.883 33.057 176.131 46.153 176.157 46.231 L 155.207 50.341 L 150.687 74.581 L 130.147 61.021 L 109.607 75.021 L 104.677 51.161 L 80.857 46.641 L 94.407 26.101 L 80.407 5.971 L 97.145 3.231 C 101.187 7.174 103.126 6.886 105.907 8.851 C 99.952 17.081 98.706 27.816 102.617 37.191 C 107.292 48.055 117.931 55.142 129.757 55.271 C 133.718 55.245 137.632 54.408 141.257 52.811 C 149.426 49.363 155.535 42.681 158.021 34.17 C 161.643 35.083 167.239 33.441 166.772 33.087 Z" style="fill: rgb(255, 136, 51);" transform="matrix(-0.996195, -0.087155, 0.087155, -0.996195, 252.70721, 88.33538)"/>
  <path class="cls-4" d="M 112.36 30.61 C 113.542 31.078 114.791 31.354 116.06 31.43 C 121.928 43.778 134.044 51.961 147.691 52.79 C 145.544 57.675 141.555 61.513 136.591 63.47 C 134.013 64.642 131.2 65.204 128.37 65.11 C 119.716 65.224 111.883 60.003 108.66 51.97 C 106.607 46.686 106.607 40.824 108.66 35.54 C 109.991 33.972 111.227 32.326 112.36 30.61 Z" style="fill: rgb(255, 185, 47);" transform="matrix(-0.996195, -0.087155, 0.087155, -0.996195, 250.154745, 106.652051)"/>
</svg>