<svg id="Layer_1" data-name="Layer 1" xmlns="http://www.w3.org/2000/svg" viewBox="0 0 200 200"><defs><style>.cls-1{fill:#8ed1e9;}.cls-2{fill:#008fbf;}.cls-3{fill:#a3a3a3;}.cls-4{fill:#e6e6e6;}</style></defs><title>Artboard 47</title><path class="cls-1" d="M184.07,63.83a46.32,46.32,0,0,1-46.51-46.51,44.8,44.8,0,0,1,2-12.72,46.39,46.39,0,0,0-33.79,35.78C119.68,44,131.6,53.89,136.77,67A36.78,36.78,0,0,1,167,93.24c13.91-5.17,25-16.7,29-31A41,41,0,0,1,184.07,63.83Z"/><path class="cls-2" d="M184.07,63.83a46.32,46.32,0,0,1-46.51-46.51,44.8,44.8,0,0,1,2-12.72,46.39,46.39,0,0,0-33.79,35.78,42.38,42.38,0,0,1,7.55,2.78A39.86,39.86,0,0,1,130,17.71c0,29.42,23.85,53.27,52.87,54.06A40,40,0,0,1,163.8,86.09,43.08,43.08,0,0,1,167,93.64c13.91-5.17,25-16.7,29-31A60.67,60.67,0,0,1,184.07,63.83Z"/><circle class="cls-2" cx="80.32" cy="147.7" r="7.95"/><circle class="cls-2" cx="60.84" cy="187.45" r="7.95"/><circle class="cls-2" cx="92.65" cy="191.43" r="3.98"/><circle class="cls-2" cx="8.77" cy="191.43" r="3.98"/><circle class="cls-2" cx="76.35" cy="171.55" r="3.98"/><path class="cls-2" d="M174.14,171.16l-8.35-4.77,6-1.59a3.52,3.52,0,0,0-2-6.76L157,161.61l-4.77-2.78a8.75,8.75,0,0,0,.4-3.18,6.76,6.76,0,0,0-.4-2.78l4.77-2.78,12.72,3.58h.8a3.82,3.82,0,0,0,3.58-2.78c.4-2-.4-4-2.39-4.37l-6-1.59,8.35-4.77a3.48,3.48,0,1,0-3.58-6L162.21,139l1.59-6.36a3.66,3.66,0,0,0-7.16-1.59l-3.18,12.72-4.77,2.78a13.75,13.75,0,0,0-4.77-2.78v-5.17l9.54-9.14c1.59-1.19,1.59-3.58,0-5.17-1.19-1.59-3.58-1.59-5.17,0l-4.77,4.37v-9.94a3.58,3.58,0,0,0-7.16,0v9.94l-3.58-4.77a3.65,3.65,0,1,0-5.17,5.17l9.54,9.14v5.57a14,14,0,0,0-5.17,3.18l-4-2.39-3.18-13.12a3.66,3.66,0,0,0-7.16,1.59l1.59,6.36-8.35-4.77c-1.59-.8-4-.4-4.77,1.19s-.4,4,1.19,4.77l8.35,4.77-6,1.59a3.18,3.18,0,0,0-2.39,4.37,3.82,3.82,0,0,0,3.58,2.78h.8l12.72-3.58,4.37,2.78c0,.8-.4,1.19-.4,2a6.76,6.76,0,0,0,.4,2.78L124,160.82l-12.72-3.58c-2-.4-4,.4-4.37,2.39s.4,4,2.39,4.37l6,1.59L107,170.36a3.33,3.33,0,0,0-1.19,4.77,3.62,3.62,0,0,0,3.18,1.59c.8,0,1.19,0,1.59-.4l8.35-4.77-1.59,6.36a3.66,3.66,0,0,0,2.78,4.37h.8a3.82,3.82,0,0,0,3.58-2.78l3.18-13.12,4.77-2.78a13.75,13.75,0,0,0,4.77,2.78v5.17l-9.54,9.14c-1.59,1.19-1.59,3.58,0,5.17a3.44,3.44,0,0,0,2.39,1.19,2.83,2.83,0,0,0,2.39-1.19l4.77-4.37v9.94a3.58,3.58,0,0,0,7.16,0v-9.94l4.77,4.37a3.44,3.44,0,0,0,2.39,1.19,2.83,2.83,0,0,0,2.39-1.19,4.18,4.18,0,0,0,0-5.17l-9.54-9.14v-5.17a8.25,8.25,0,0,0,4-2.39l5.17,2.78,3.18,13.12a3.82,3.82,0,0,0,3.58,2.78h.8a3.66,3.66,0,0,0,2.78-4.37L162.21,172l8.35,4.77a2.39,2.39,0,0,0,1.59.4,4.91,4.91,0,0,0,3.18-1.59A2.75,2.75,0,0,0,174.14,171.16ZM140.75,160a5.17,5.17,0,1,1,5.17-5.17A5,5,0,0,1,140.75,160Z"/><path class="cls-2" d="M45.34,177.12l-2-4A10.72,10.72,0,0,0,46.14,170a11.9,11.9,0,0,0,1.59-4H52.1a4,4,0,0,0,0-8H47.73c-.4-2.78-2-5.17-4-7.55l2.39-4a4,4,0,0,0-6.76-4.37l-2.39,4a15,15,0,0,0-8.35-.4l-2-4c-1.19-2-3.58-2.78-5.17-1.59-2,1.19-2.78,3.58-1.59,5.17l2,4a10.72,10.72,0,0,0-2.78,3.18,11.9,11.9,0,0,0-1.59,4H13.14a3.76,3.76,0,0,0-4,4,4.17,4.17,0,0,0,2,3.58c.4.4,1.19.4,2,.8h4.37c.4,2.78,2,5.17,4,7.55l-2.39,4a4,4,0,0,0,6.76,4.37l2.39-4a15,15,0,0,0,8.35.4l2,4a5.49,5.49,0,0,0,1.19,1.59,3.61,3.61,0,0,0,4,0A4,4,0,0,0,45.34,177.12Zm-17.49-8.35A8,8,0,1,1,39,166.39,8.16,8.16,0,0,1,27.85,168.77Z"/><path class="cls-3" d="M99,131.8l12.32-7.16H31A18.92,18.92,0,0,1,12.35,106,18.66,18.66,0,0,1,31,87.28a20,20,0,0,1,4.77.8v-.8A18.66,18.66,0,0,1,54.48,68.6,18.35,18.35,0,0,1,66.41,73,30.63,30.63,0,0,1,94.24,54.68a30,30,0,0,1,30.21,29,20.79,20.79,0,0,1,7.16-1.19,21.21,21.21,0,0,1,21.07,21.07,23.58,23.58,0,0,1-2,9.14l7.16,4A28.95,28.95,0,0,0,132,74.56h-.4a38,38,0,0,0-37-27.83,39,39,0,0,0-31,15.5,20.62,20.62,0,0,0-9.54-2A26.61,26.61,0,0,0,28.65,78.93a26.67,26.67,0,0,0,2,53.27h68Z"/><path class="cls-4" d="M140.75,106.76l9.54,5.57a23.58,23.58,0,0,0,2-9.14A21.21,21.21,0,0,0,131.2,82.11,22.51,22.51,0,0,0,124,83.3a30,30,0,0,0-30.21-29A30.63,30.63,0,0,0,66,72.57,18.35,18.35,0,0,0,54.09,68.2,18.66,18.66,0,0,0,35.4,86.88v.8a20,20,0,0,0-4.77-.8A18.92,18.92,0,0,0,12,105.57a18.66,18.66,0,0,0,18.68,18.68h80.3Z"/></svg>