<svg viewBox="0 0 50 50" xmlns="http://www.w3.org/2000/svg"><g fill="currentColor"><path d="M 25 6 C 23.354545 6 22 7.3545455 22 9 L 22 10.404297 C 20.055915 10.862511 18.355496 11.763696 17.046875 13.083984 C 15.095153 15.05311 14 17.84755 14 21.0625 L 14 28.863281 C 14 30.697397 12.996784 33.027104 11.960938 34.755859 L 10.167969 37.445312 A 1.0001 1.0001 0 0 0 11 39 L 20 39 C 20 41.745455 22.254545 44 25 44 C 27.745455 44 30 41.745455 30 39 L 39 39 A 1.0001 1.0001 0 0 0 39.832031 37.445312 L 38.044922 34.765625 L 38.042969 34.761719 C 36.995242 33.014388 36 30.836573 36 29 L 36 21.199219 C 36 15.833228 32.805183 11.676163 28 10.443359 L 28 9 C 28 7.3545455 26.645455 6 25 6 z M 25 8 C 25.554545 8 26 8.4454545 26 9 L 26 10.113281 C 25.778498 10.095356 25.560456 10.070789 25.333984 10.064453 A 1.0001 1.0001 0 0 0 25 10 A 1.0001 1.0001 0 0 0 24.681641 10.056641 C 24.450536 10.062399 24.226494 10.084821 24 10.101562 L 24 9 C 24 8.4454545 24.445455 8 25 8 z M 3.4804688 9.4765625 C 1.2493231 13.103089 -2.9605947e-16 17.418182 0 22 C 0 26.581818 1.2493231 30.896911 3.4804688 34.523438 L 5.1855469 33.476562 C 3.1506926 30.169089 2 26.218182 2 22 C 2 17.781818 3.1506926 13.830911 5.1855469 10.523438 L 3.4804688 9.4765625 z M 46.519531 9.4765625 L 44.814453 10.523438 C 46.849307 13.83091 48 17.781818 48 22 C 48 26.218182 46.849307 30.169089 44.814453 33.476562 L 46.519531 34.523438 C 48.750677 30.896911 50 26.581818 50 22 C 50 17.418182 48.750677 13.103089 46.519531 9.4765625 z M 25 12 C 30.510733 12 34 15.666193 34 21.199219 L 34 29 C 34 31.512165 35.204644 33.918853 36.330078 35.794922 A 1.0001 1.0001 0 0 0 36.355469 35.835938 L 37.130859 37 L 12.869141 37 L 13.644531 35.835938 A 1.0001 1.0001 0 0 0 13.669922 35.796875 C 14.807846 33.900681 16 31.375446 16 28.863281 L 16 21.0625 C 16 18.29545 16.913769 16.059063 18.466797 14.492188 C 20.019825 12.925312 22.236942 12 25 12 z M 7.8164062 12.140625 C 5.9949036 15.081921 5 18.353594 5 22 C 5 25.672173 6.1278502 29.047117 7.8085938 31.847656 L 9.5253906 30.818359 C 8.0061341 28.286898 7 25.261827 7 22 C 7 18.712406 7.8710809 15.852063 9.5175781 13.193359 L 7.8164062 12.140625 z M 42.183594 12.140625 L 40.482422 13.193359 C 42.128919 15.852063 43 18.712406 43 22 C 43 25.261827 41.993866 28.286898 40.474609 30.818359 L 42.191406 31.847656 C 43.87215 29.047117 45 25.672173 45 22 C 45 18.353594 44.005097 15.081921 42.183594 12.140625 z M 22 39 L 28 39 C 28 40.654545 26.654545 42 25 42 C 23.345455 42 22 40.654545 22 39 z"/></g></svg>
