<svg id="Layer_1" data-name="Layer 1" xmlns="http://www.w3.org/2000/svg" viewBox="0 0 200 200"><defs><style>.cls-1{fill:#f83;}.cls-2{fill:#ffb92f;}</style></defs><title>Artboard 33</title><g id="_Group_" data-name="&lt;Group&gt;"><path id="_Compound_Path_" data-name="&lt;Compound Path&gt;" class="cls-1" d="M160.07,100,195.6,70.46l-47.1-4,10.38-43.91L118.16,45.31,99.8,4.2,81,45.31,40.72,22.56,51.1,66.47,4,70.46,39.53,100,4,129.54l47.1,4L40.72,177.44l40.72-22.75L99.8,195.8l18.76-41.11,40.72,22.75L148.9,133.53l47.1-4ZM99.8,151.89A51.89,51.89,0,1,1,151.69,100,51.79,51.79,0,0,1,99.8,151.89Z"/><path id="_Path_" data-name="&lt;Path&gt;" class="cls-2" d="M99.8,56.09A43.91,43.91,0,1,0,143.71,100,43.78,43.78,0,0,0,99.8,56.09Z"/></g></svg>