<svg id="Layer_1" data-name="Layer 1" xmlns="http://www.w3.org/2000/svg" viewBox="0 0 200 200"><defs><style>.cls-1{fill:#a3a3a3;}.cls-2{fill:#e6e6e6;}</style></defs><title>Artboard 27</title><path class="cls-1" d="M114.8,48a46.8,46.8,0,0,0-38,19.6,30.61,30.61,0,0,0-12-2.4A31.79,31.79,0,0,0,34.4,88.4,32.06,32.06,0,0,0,4,120.4,31.41,31.41,0,0,0,35.6,152h126a34.4,34.4,0,0,0,0-68.8h-2A45.91,45.91,0,0,0,114.8,48Z"/><path class="cls-2" d="M35.6,96.8a30.88,30.88,0,0,1,6,.8v-.8A23.31,23.31,0,0,1,65.2,73.6,23.77,23.77,0,0,1,80,78.8,37.38,37.38,0,0,1,114.8,56a37.93,37.93,0,0,1,38,36.4,31.2,31.2,0,0,1,8.8-1.6,26.4,26.4,0,0,1,0,52.8H35.6A23.06,23.06,0,0,1,12,120.4,23.64,23.64,0,0,1,35.6,96.8Z"/></svg>