<?xml version="1.0" encoding="iso-8859-1"?>
<!-- Generator: Adobe Illustrator 19.0.0, SVG Export Plug-In . SVG Version: 6.00 Build 0)  -->
<svg version="1.1" id="Layer_1" xmlns="http://www.w3.org/2000/svg" xmlns:xlink="http://www.w3.org/1999/xlink" x="0px" y="0px"
	 viewBox="0 0 512 512" style="enable-background:new 0 0 512 512;" xml:space="preserve">
<polygon style="fill:#E6E9ED;" points="499.469,205.347 467.969,164.612 412.624,128.494 343.467,122.345 296.56,141.557 
	252.004,168.995 230.488,148.526 179.761,141.557 146.182,168.995 126.814,218.191 95.979,228.41 61.899,263.996 10.665,274.668 
	53.329,317.324 53.329,338.67 10.665,381.326 125.994,391.998 125.994,381.607 159.011,386.732 318.091,386.732 415.702,378.279 
	461.812,349.842 504.844,281.434 "/>
<path d="M365.342,109.33c-42.282,0-80.376,17.899-107.143,46.524c-14.344-16.524-35.492-26.961-59.087-26.961
	c-43.195,0-78.22,35.016-78.22,78.22c0,0.648,0.008,1.305,0.023,1.953c-26.789,5.43-49.595,21.812-63.556,44.266H10.665
	C4.773,253.332,0,258.105,0,263.996c-0.008,5.891,4.773,10.672,10.665,10.672l0,0l0,0h149.338c5.891,0,10.664-4.781,10.664-10.672
	s-4.773-10.665-10.664-10.665l0,0H84.025c10.899-11.914,25.368-20.164,41.133-23.359l17.524-3.555l-0.438-17.883
	c-0.016-0.516-0.023-0.984-0.023-1.422c0-31.368,25.524-56.892,56.891-56.892c16.493,0,32.157,7.148,42.978,19.617l15.523,17.875
	l16.165-17.289c11.625-12.43,25.344-22.203,40.812-29.062c16-7.094,33.079-10.696,50.751-10.696
	c33.469,0,64.938,13.04,88.626,36.711c23.657,23.672,36.704,55.142,36.704,88.626c0,33.477-13.047,64.946-36.704,88.62
	c-23.688,23.672-55.157,36.703-88.626,36.703H79.486H10.665C4.773,381.326,0,386.107,0,391.998
	c-0.008,5.891,4.773,10.672,10.665,10.672l0,0l0,0h181.338h173.339C446.343,402.67,512,336.998,512,256.003
	C512,174.995,446.343,109.33,365.342,109.33z"/>
<path d="M53.329,317.324c-5.891,0-10.664,4.781-10.664,10.674c0,5.891,4.773,10.672,10.664,10.672l0,0l0,0h149.338
	c5.891,0,10.664-4.781,10.664-10.672c0-5.893-4.773-10.674-10.664-10.674l0,0H53.329z"/>
<g>
</g>
<g>
</g>
<g>
</g>
<g>
</g>
<g>
</g>
<g>
</g>
<g>
</g>
<g>
</g>
<g>
</g>
<g>
</g>
<g>
</g>
<g>
</g>
<g>
</g>
<g>
</g>
<g>
</g>
</svg>
