<?xml version="1.0" encoding="utf-8"?>
<svg version="1.1" id="Layer_1" x="0px" y="0px" viewBox="0 0 512 512" style="enable-background:new 0 0 512 512;" xmlns="http://www.w3.org/2000/svg">
  <defs>
    <radialGradient id="gradient-0" gradientUnits="userSpaceOnUse" cx="287.569" cy="264.262" r="247.089" gradientTransform="matrix(0.817095, -0.002407, 0.002747, 0.93261, 46.438187, -60.048832)">
      <stop offset="0" style="stop-color: rgb(176, 176, 176);"/>
      <stop offset="1" style="stop-color: rgba(204, 204, 204, 0.6);"/>
    </radialGradient>
  </defs>
  <polygon points="499.469 127.347 467.969 86.612 412.624 50.494 343.467 44.345 296.56 63.557 252.004 90.995 230.488 70.526 179.761 63.557 146.182 90.995 126.814 140.191 95.979 150.41 61.899 185.996 10.665 196.668 53.329 239.324 53.329 260.67 10.665 303.326 125.994 313.998 125.994 303.607 159.011 308.732 318.091 308.732 415.702 300.279 461.812 271.842 504.844 203.434" style="fill: url(#gradient-0);"/>
  <path d="M 365.342 31.33 C 323.06 31.33 284.966 49.229 258.199 77.854 C 243.855 61.33 222.707 50.893 199.112 50.893 C 155.917 50.893 120.892 85.909 120.892 129.113 C 120.892 129.761 120.9 130.418 120.915 131.066 C 94.126 136.496 71.32 152.878 57.359 175.332 L 10.665 175.332 C 4.773 175.332 0 180.105 0 185.996 C -0.008 191.887 4.773 196.668 10.665 196.668 L 10.665 196.668 L 10.665 196.668 L 160.003 196.668 C 165.894 196.668 170.667 191.887 170.667 185.996 C 170.667 180.105 165.894 175.331 160.003 175.331 L 160.003 175.331 L 84.025 175.331 C 94.924 163.417 109.393 155.167 125.158 151.972 L 142.682 148.417 L 142.244 130.534 C 142.228 130.018 142.221 129.55 142.221 129.112 C 142.221 97.744 167.745 72.22 199.112 72.22 C 215.605 72.22 231.269 79.368 242.09 91.837 L 257.613 109.712 L 273.778 92.423 C 285.403 79.993 299.122 70.22 314.59 63.361 C 330.59 56.267 347.669 52.665 365.341 52.665 C 398.81 52.665 430.279 65.705 453.967 89.376 C 477.624 113.048 490.671 144.518 490.671 178.002 C 490.671 211.479 477.624 242.948 453.967 266.622 C 430.279 290.294 398.81 303.325 365.341 303.325 L 79.486 303.325 L 10.665 303.325 C 4.773 303.326 0 308.107 0 313.998 C -0.008 319.889 4.773 324.67 10.665 324.67 L 10.665 324.67 L 10.665 324.67 L 192.003 324.67 L 365.342 324.67 C 446.343 324.67 512 258.998 512 178.003 C 512 96.995 446.343 31.33 365.342 31.33 Z" style="fill: rgb(163, 163, 163);"/>
  <path d="M 53.329 239.324 C 47.438 239.324 42.665 244.105 42.665 249.998 C 42.665 255.889 47.438 260.67 53.329 260.67 L 53.329 260.67 L 53.329 260.67 L 202.667 260.67 C 208.558 260.67 213.331 255.889 213.331 249.998 C 213.331 244.105 208.558 239.324 202.667 239.324 L 202.667 239.324 L 53.329 239.324 Z" style="fill: rgb(163, 163, 163);"/>
 <polygon class="cls-1" points="94.29 329.319 138.529 406.359 182.768 344.727 244.704 483.4 306.639 344.727 350.878 406.359 395.118 329.319 94.29 329.319" style="fill: rgb(21, 170, 220);"/>
</svg>
