<?xml version="1.0" encoding="utf-8"?>
<svg fill="#000000" version="1.1" viewBox="0 0 512 512" xmlns="http://www.w3.org/2000/svg" xmlns:bx="https://boxy-svg.com">
  <defs>
    <filter id="filter-0" primitiveUnits="objectBoundingBox" bx:pinned="true">
      <feGaussianBlur result="gaussian-blur-0" in="none" stdDeviation="0.04"/>
      <title>blur</title>
    </filter>
    <radialGradient gradientUnits="userSpaceOnUse" cx="158.686" cy="180.672" r="231.362" id="gradient-0" gradientTransform="matrix(0.975142, 0, 0, 0.975142, 4.816728, 5.475787)">
      <stop offset="0" style="stop-color: rgba(216, 216, 216, 1)"/>
      <stop offset="1" style="stop-color: rgba(165, 165, 165, 0.91);"/>
    </radialGradient>
    <radialGradient gradientUnits="userSpaceOnUse" cx="362.759" cy="286.308" r="242.3" id="gradient-1" gradientTransform="matrix(0.975142, 0, 0, 0.975142, 4.816728, 5.475787)">
      <stop offset="0" style="stop-color: rgba(216, 216, 216, 1)"/>
      <stop offset="1" style="stop-color: rgba(165, 165, 165, 0.85);"/>
    </radialGradient>
  </defs>
  <path d="M 26.483 152.226 C 37.444 150.824 48.007 150.076 58.758 148.279 C 65.427 147.166 71.531 141.996 78.889 143.355 C 86.113 144.689 93.159 150.449 100.564 151.236 C 110.475 152.289 120.781 151.107 130.766 151.107 C 135.377 151.107 142.385 152.221 146.834 151.107 C 158.994 148.062 171.389 147.297 182.708 143.38 C 186.011 142.237 190.325 144.234 193.736 143.38 C 197.762 142.372 205.635 141.182 209.797 142.117 C 218.058 143.974 225.53 148.615 233.599 149.978 C 248.048 152.419 263.279 151.871 277.89 153.088 C 285.188 153.696 293.955 154.731 301.205 153.52 C 307.684 152.437 313.932 150.291 320.532 150.291 C 332.487 150.291 344.799 149.41 356.593 147.53 C 361.092 146.813 367.671 144.576 372.263 145.335 C 380.123 146.636 385.884 150.441 393.772 151.773 C 404.527 153.59 415.677 151.266 426.355 152.299 C 435.244 153.159 443.214 154.894 452.114 156.397 C 454.519 156.803 460.236 155.939 461.435 158.338 C 461.678 158.824 446.916 160.222 446.956 160.371 C 448.162 164.839 459.713 164.227 463.43 164.913 C 463.606 164.945 463.804 168.926 463.565 169.163 C 462.274 170.444 460.103 170.871 459.475 172.749 C 458.234 176.459 465.321 176.365 459.727 179.429 C 449.445 185.058 433.864 180.503 423.179 185.805 C 423.058 185.864 423.797 187.776 422.978 187.997 C 418.728 189.142 415.039 192.023 410.796 193.48 C 405.321 195.358 398.982 194.373 393.303 194.939 C 378.24 196.441 362.895 194.752 347.828 196.253 C 340.072 197.027 332.131 201.033 324.433 201.531 C 322.15 201.679 320.939 201.493 318.977 201.665 C 317.858 201.764 316.142 203.117 315.637 202.114 C 315.53 201.903 317.061 200.669 316.773 200.628 C 310.592 199.755 304.27 199.856 297.897 199.856 C 287.489 199.856 278.53 201.817 268.582 203.015 C 263.823 203.588 258.446 202.436 253.83 204.107 C 243.954 207.682 232.185 206.686 222.507 210.765 C 216.881 213.136 211.369 216.95 204.78 216.95 C 202.957 216.95 211.091 213.491 209.306 213.873 C 196.799 216.554 178.721 222.691 165.771 219.555 C 161.109 218.426 156.37 217.838 151.55 217.029 C 150.631 216.875 146.503 217.641 145.891 217.029 C 142.477 213.615 135.074 213.125 129.938 213.763 C 122.005 214.748 115.732 215.243 107.855 213.684 C 106.488 213.414 102.963 214.52 102.127 213.684 C 101.071 212.628 105.073 210.529 97.603 208.662 C 78.428 203.868 56.068 211.029 36.853 206.225 C 31.02 204.766 23.216 206.962 18.15 202.656 C 16.779 201.49 15.46 192.269 17.214 189.801 C 18.264 188.324 23.213 186.355 22.09 184.111 C 19.656 179.241 9.476 179.776 13.306 172.057 C 15.352 167.934 28.209 170.213 31.358 170.213 C 31.98 170.213 37.005 170.614 37.204 170.213 C 37.776 169.061 32.01 167.533 31.665 167.45 C 28.613 166.71 19.267 168.336 17.693 165.187 C 17.21 164.221 16.518 162.078 16.518 160.759 C 16.518 158.512 14.809 157.123 15.343 154.971 C 16.412 150.664 27.292 153.187 30.135 153.187" style="filter: url(#filter-0); fill: url(#gradient-0);"/>
  <path d="M 74.32 237.295 C 97.127 239.361 106.635 234.08 129.458 237.858 C 141 239.768 147.91 245.932 161.698 244.503 C 168.506 243.797 174.845 240.707 181.371 239.313 C 191.272 237.199 202.653 237.772 212.875 236.067 C 223.138 234.353 228.758 231.911 237.389 233.799 C 247.902 236.099 257.626 237.069 268.398 234.461 C 271.664 233.671 279.43 230.846 283.065 232.663 C 287.382 234.821 286.782 242.472 290.655 244.632 C 300.873 250.328 314.73 254.357 326.949 252.227 C 332.193 251.312 337.299 249.499 342.283 248.683 C 346.665 247.964 352.388 249.352 356.498 247.817 C 361.842 245.822 368.035 239.872 373.631 239.172 C 378.343 238.582 383.72 237.783 388.231 236.249 C 400.956 231.922 420.837 239.423 432.555 241.587 C 436.527 242.32 441.323 235.167 445.624 233.801 C 447.98 233.053 452.397 234.81 454.663 235.248 C 466.214 237.483 471.161 245.293 478.805 252.938 C 479.81 253.943 483.106 244.466 486.429 247.79 C 487.711 249.072 488.214 256.858 488.347 257.927 C 488.863 262.071 487.609 270.75 489.439 274.411 C 491.035 277.603 492.731 280.323 493.348 284.054 C 493.648 285.861 493.312 290.033 492.319 291.161 C 488.599 295.382 480.598 301.512 479.601 307.599 C 478.767 312.686 482.432 327.43 476.863 330.519 C 474.076 332.065 469.597 331.346 466.426 331.892 C 454.565 333.935 442.733 332.507 430.985 330.561 C 418.397 328.475 406.061 328.513 393.481 327.235 C 386.656 326.541 382.507 321.9 376.613 319.962 C 366.919 316.775 355.646 314.171 345.577 312.764 C 338.038 311.712 331.31 308.343 323.306 309.337 C 315.391 310.32 305.033 320.573 299.969 326.093 C 298.901 327.256 296.618 326.041 295.54 327.216 C 289.621 333.667 277.954 338.746 269.747 339.735 C 233.859 344.058 207.68 323.768 173.957 317.703 C 164.722 316.043 156.624 317.347 147.494 318.48 C 137.679 319.699 131.829 327.115 122.222 329.637 C 103.656 334.512 89.915 335.612 70.918 335.612 C 64.944 335.612 50.553 336.67 46.547 332.664 C 43.453 329.57 42.118 318.136 42.118 313.665 C 42.118 312.46 41.66 309.296 42.523 308.324 C 44.151 306.491 53.493 303.283 52.487 300.835 C 51.54 298.534 49.223 298.26 47.132 297.266 C 39.895 293.829 30.406 291.098 23.348 289.577 C 20.933 289.057 22.518 279.406 22.173 277.66 C 21.663 275.08 19.966 269.465 21.584 266.921 C 25.496 260.772 30.731 248.419 38.483 246.754 C 42.688 245.851 46.855 245.233 50.834 243.752 C 57.049 241.439 61.463 245.956 67.251 240.745 C 69.28 238.919 73.753 239.466 75.033 236.889" style="filter: url(#filter-0); fill: url(#gradient-1);"/>
</svg>
