<svg viewBox="-107 0 512 512" xmlns="http://www.w3.org/2000/svg"><g fill="red"><path d="m0 85.332031v384c0 23.566407 19.101562 42.667969 42.667969 42.667969h213.332031c23.566406 0 42.667969-19.101562 42.667969-42.667969v-384zm256 384h-213.332031v-341.332031h213.332031zm0 0"/><path d="m234.667969 21.332031c0-11.78125-9.554688-21.332031-21.335938-21.332031h-128c-11.78125 0-21.332031 9.550781-21.332031 21.332031v42.667969h170.667969zm0 0"/><path d="m85.332031 448h128c11.78125 0 21.335938-9.550781 21.335938-21.332031v-64.59375l-170.578125 66.335937c.890625 10.964844 10.046875 19.589844 21.242187 19.589844zm0 0"/></g></svg>
