<?xml version="1.0" encoding="utf-8"?>
<svg id="Layer_1" data-name="Layer 1" viewBox="0 0 200 200" xmlns="http://www.w3.org/2000/svg">
  <defs>
    <style>.cls-1{fill:#8ed1e9;}.cls-2{fill:#008fbf;}</style>
  </defs>
  <title>Artboard 33</title>
  <g id="_Group_" data-name="&lt;Group&gt;"/>
  <rect x="19.711" y="83.049" width="191.59" height="8.673" transform="matrix(1, 0, 0, 0.999999, -15.191857, 17.083317)" style="fill: rgb(153, 153, 153);"/>
  <path class="cls-1" d="M 54.2 54 C 64.2 21.5 94.7 -0.2 128.8 1.3 C 125 7.3 122.1 13.5 120 20.2 C 110.9 50.1 121.8 81.5 145 100.1 L 55.2 100.1 C 50.1 85.7 49.4 69.6 54.2 54 Z"/>
  <path class="cls-2" d="M 61 56.1 C 56.4 71.1 57.4 86.5 62.7 100.1 L 55.2 100.1 C 50.1 85.7 49.4 69.6 54.2 54 C 64.2 21.5 94.7 -0.2 128.8 1.3 C 125 7.3 122 13.5 120 20.2 C 110.9 50.1 121.8 81.5 145 100.1 L 135.2 100.1 C 113.8 79.6 104.4 48.1 113.6 17.8 C 114.7 14.7 115.8 11.7 117 8.7 C 90.7 12.1 68.7 30.6 61 56.1 Z"/>
</svg>