<svg id="Layer_1" data-name="Layer 1" xmlns="http://www.w3.org/2000/svg" viewBox="0 0 200 200"><defs><style>.cls-1{fill:#a3a3a3;}.cls-2{fill:#f83;}.cls-3{fill:#15aadc;}.cls-4{fill:#ffb92f;}.cls-5{fill:#e6e6e6;}</style></defs><title>Artboard 38</title><path class="cls-1" d="M117.54,92.61l2.05-4.93h65.31l-5.34,11.5-7,15.61h18.07A32,32,0,0,0,196,97.12a31.64,31.64,0,0,0-31.63-31.63h-.82a41.55,41.55,0,0,0-40.67-30.81A42.41,42.41,0,0,0,88.79,51.94,28.36,28.36,0,0,0,78.52,50.3,29.22,29.22,0,0,0,50.59,70.83C36.21,71.66,24.3,84,24.3,99.59c0,16,13.14,29.17,28.75,29.17H100.7Z"/><path class="cls-2" d="M26.35,74.12a60.07,60.07,0,0,1,7.8-6.57,29.18,29.18,0,0,1-3.29-28.34A29.9,29.9,0,0,1,58,21.13a29,29,0,0,1,11.5,2.46,29.49,29.49,0,0,1,16.84,18.9A50.54,50.54,0,0,1,104.4,30.17L83.45,26.06,78.93,1.82,58.39,15.38l-20.54-14L32.92,25.24,9.1,29.76,22.65,50.3l-14,20.13Z"/><path class="cls-3" d="M40.73,198.59c-.82,0-1.23,0-1.64-.41a3.63,3.63,0,0,1-1.64-5.34L58,151.76a4,4,0,1,1,7,3.7L44.42,196.53A4.31,4.31,0,0,1,40.73,198.59Z"/><path class="cls-3" d="M7.87,198.59c-.82,0-1.23,0-1.64-.41a3.63,3.63,0,0,1-1.64-5.34l20.54-41.08a3.63,3.63,0,0,1,5.34-1.64,3.63,3.63,0,0,1,1.64,5.34L11.56,196.53A4.31,4.31,0,0,1,7.87,198.59Z"/><path class="cls-3" d="M7.87,165.72c-.82,0-1.23,0-1.64-.41A3.63,3.63,0,0,1,4.58,160L21,127.11a3.63,3.63,0,0,1,5.34-1.64A3.63,3.63,0,0,1,28,130.81L11.56,163.67A4.31,4.31,0,0,1,7.87,165.72Z"/><polygon class="cls-4" points="186.55 123 159.85 123 172.18 95.89 124.94 95.89 102.34 145.19 129.04 145.19 106.45 198.59 186.55 123"/><path class="cls-3" d="M98.24,153.4H89.61L69.89,192.84c-.82,2.05,0,4.52,1.64,5.34a3.7,3.7,0,0,0,2.05.41,4,4,0,0,0,3.7-2.46L97.82,155C98.24,154.63,98.24,154.22,98.24,153.4Z"/><path class="cls-5" d="M117.54,92.61l2.05-4.93h65.31l-5.34,11.5-7,15.61h7a24,24,0,0,0,8.22-17.66,23.4,23.4,0,0,0-23.41-23.41,23.92,23.92,0,0,0-7.8,1.23,33.52,33.52,0,0,0-33.68-32A33.05,33.05,0,0,0,92.07,63a21.22,21.22,0,0,0-13.14-4.52A20.34,20.34,0,0,0,58.39,79.05v.82a20.81,20.81,0,0,0-5.34-.82A20.69,20.69,0,0,0,32.51,100c0,11.5,9.45,20.95,20.54,20.95H104.4Z"/><path class="cls-4" d="M41.55,64.26a12,12,0,0,1,3.7-.82A37.54,37.54,0,0,1,76.88,42.08,20.23,20.23,0,0,0,65.78,31.4a18.39,18.39,0,0,0-8.22-1.64A20.94,20.94,0,0,0,37.85,42.9a22.68,22.68,0,0,0,0,16.43A51.31,51.31,0,0,1,41.55,64.26Z"/><path class="cls-3" d="M48.53,137,37,160c-.82,2.05,0,4.52,1.64,5.34a3.7,3.7,0,0,0,2.05.41,4,4,0,0,0,3.7-2.46L57.57,137Z"/><path class="cls-3" d="M81.39,137l-11.5,23c-.82,2.05,0,4.52,1.64,5.34a3.7,3.7,0,0,0,2.05.41,4,4,0,0,0,3.7-2.46L90.43,137Z"/></svg>