<svg id="Layer_1" data-name="Layer 1" xmlns="http://www.w3.org/2000/svg" viewBox="0 0 200 200"><defs><style>.cls-1{fill:#8ed1e9;}.cls-2{fill:#ffb92f;}.cls-3{fill:#15aadc;}.cls-4{fill:#008fbf;}.cls-5{fill:#e6e6e6;}.cls-6{fill:#a3a3a3;}</style></defs><title>Artboard 48</title><path class="cls-1" d="M136.65,66.94A36.35,36.35,0,0,1,164.93,88h12.35A44.22,44.22,0,0,0,196,62.16a53.87,53.87,0,0,1-11.55,1.59,46.41,46.41,0,0,1-46.61-46.61,44.89,44.89,0,0,1,2-12.75A46.49,46.49,0,0,0,106,40.25,46.62,46.62,0,0,1,136.65,66.94Z"/><polygon class="cls-2" points="192.02 122.31 165.73 122.31 178.07 96.02 132.27 96.02 110.36 143.82 136.25 143.82 114.34 195.6 192.02 122.31"/><path class="cls-3" d="M19.14,137.84l-10,20.32a4.2,4.2,0,0,0,1.59,5.18,3.59,3.59,0,0,0,2,.4,3.83,3.83,0,0,0,3.59-2.39L27.1,139.44C24.32,139.44,21.93,138.64,19.14,137.84Z"/><path class="cls-3" d="M66.14,148.2A4.2,4.2,0,0,0,61,149.79L41,189.63a4.2,4.2,0,0,0,1.59,5.18,2.19,2.19,0,0,0,2,.8,3.83,3.83,0,0,0,3.59-2.39l19.92-39.83C68.93,151.78,68.13,149.39,66.14,148.2Z"/><path class="cls-3" d="M34.27,148.2a4.2,4.2,0,0,0-5.18,1.59L9.18,189.63a4.2,4.2,0,0,0,1.59,5.18,2.19,2.19,0,0,0,2,.8,3.83,3.83,0,0,0,3.59-2.39l19.92-39.83C37.06,151.78,36.27,149.39,34.27,148.2Z"/><path class="cls-3" d="M98,148.2a4.2,4.2,0,0,0-5.18,1.59L72.91,189.63a4.2,4.2,0,0,0,1.59,5.18,2.19,2.19,0,0,0,2,.8,3.83,3.83,0,0,0,3.59-2.39L100,153.38C100.8,151.78,100,149.39,98,148.2Z"/><path class="cls-3" d="M50.21,139.83,41,158.16a4.2,4.2,0,0,0,1.59,5.18,3.59,3.59,0,0,0,2,.4,3.83,3.83,0,0,0,3.59-2.39L59,139.83Z"/><path class="cls-3" d="M82.07,139.83l-9.16,18.32a4.2,4.2,0,0,0,1.59,5.18,3.59,3.59,0,0,0,2,.4,3.83,3.83,0,0,0,3.59-2.39l10.76-21.51Z"/><path class="cls-4" d="M113.15,43a39.94,39.94,0,0,1,16.73-25.49c0,29.48,23.9,53.38,53,54.17a40.09,40.09,0,0,1-19.12,14.34,8.71,8.71,0,0,0,1.2,2h12.35A44.22,44.22,0,0,0,196,62.16a53.87,53.87,0,0,1-11.55,1.59,46.41,46.41,0,0,1-46.61-46.61,44.89,44.89,0,0,1,2-12.75A46.49,46.49,0,0,0,106,40.25C108,41,110.36,41.84,113.15,43Z"/><path class="cls-5" d="M125.1,92.83l2-4.78h19.12a21.46,21.46,0,0,0-14.74-6,22.56,22.56,0,0,0-7.17,1.2A30,30,0,0,0,94,54.19,30.69,30.69,0,0,0,66.14,72.51a18.39,18.39,0,0,0-12-4.38A18.7,18.7,0,0,0,35.47,86.85v.8a20,20,0,0,0-4.78-.8A19,19,0,0,0,12,105.58,18.7,18.7,0,0,0,30.69,124.3H110Z"/><path class="cls-6" d="M110.36,124.3H31.09a19,19,0,0,1-18.72-18.72A18.7,18.7,0,0,1,31.09,86.85a20,20,0,0,1,4.78.8v-.8A18.7,18.7,0,0,1,54.59,68.13a18.39,18.39,0,0,1,12,4.38A30.69,30.69,0,0,1,94.42,54.19,30,30,0,0,1,124.7,83.27a20.83,20.83,0,0,1,7.17-1.2,22.24,22.24,0,0,1,14.74,6H157a29.11,29.11,0,0,0-24.7-13.94h-.4c-4.38-16.33-19.52-27.88-37-27.88A39.05,39.05,0,0,0,63.75,61.76,27.23,27.23,0,0,0,28.7,78.89a26.73,26.73,0,0,0,2,53.38h75.68Z"/></svg>