<?xml version="1.0" encoding="utf-8"?>
<svg fill="#000000" version="1.1" viewBox="0 0 512 512" xmlns="http://www.w3.org/2000/svg" xmlns:bx="https://boxy-svg.com">
  <defs>
    <radialGradient gradientUnits="userSpaceOnUse" cx="19.756" cy="75.257" r="47.259" id="gradient-0" gradientTransform="matrix(9.062156, -3.022569, 1.634347, 6.388277, -198.22702, -20.530426)">
      <stop offset="0" style="stop-color: rgb(136, 136, 136);"/>
      <stop offset="1" style="stop-color: rgba(187, 187, 187, 0.8);"/>
    </radialGradient>
  </defs>
  <path d="M 481.732 182.842 C 492.903 170.847 495.935 151.258 488.106 135.317 C 478.897 116.542 458.003 109.819 441.552 120.349 L 440.733 120.87 C 434.296 117.767 427.449 115.826 420.441 115.127 C 424.556 97.892 423.48 78.95 416.082 61.674 C 399.9 23.876 359.794 8.164 326.694 26.63 C 316.533 32.305 307.949 40.688 301.547 50.996 C 279.975 31.36 249.718 26.922 224.057 41.232 C 189.058 60.77 173.885 108.313 189.102 148.75 C 177.545 157.271 169.856 170.87 167.434 185.872 C 166.794 186.806 166.083 187.659 165.485 188.626 C 143.915 168.986 113.654 164.549 87.994 178.864 C 53 198.401 37.828 245.945 53.041 286.388 C 37.9 297.542 29.335 317.406 30.659 337.756 C 18.928 349.009 14.918 368.374 21.949 384.784 C 23.884 389.315 26.509 393.18 29.575 396.374 C 22.81 424.581 30.564 455.966 51.601 475.652 C 80.104 502.312 122.306 497.508 145.649 464.978 C 152.818 454.98 157.558 443.277 159.617 430.857 C 175.645 435.403 192.515 433.462 207.371 425.789 C 223.109 430.044 240.215 427.925 255.406 418.202 C 265.274 411.892 273.429 402.976 279.309 392.263 C 301.805 410.496 332.246 412.968 357.151 397.045 C 372.288 387.339 383.19 372.348 389.146 355.232 C 403.738 356.979 418.831 353.794 432.305 345.16 C 464.463 324.581 477.618 280.135 464.396 242.034 C 472.566 231.647 477.968 218.935 480.263 205.416 C 482.069 198.177 482.615 190.494 481.732 182.842 Z" style="fill: url(#gradient-0); stroke: rgb(163, 163, 163); stroke-width: 22px;" bx:origin="0.5 0.500002"/>
</svg>