<?xml version="1.0" encoding="iso-8859-1"?>
<!-- Generator: Adobe Illustrator 19.0.0, SVG Export Plug-In . SVG Version: 6.00 Build 0)  -->
<svg version="1.1" id="Capa_1" xmlns="http://www.w3.org/2000/svg" xmlns:xlink="http://www.w3.org/1999/xlink" x="0px" y="0px"
	 viewBox="0 0 512 512" style="enable-background:new 0 0 512 512;" xml:space="preserve">
<path style="fill:#83B6FF;" d="M406.327,94.254c-19.93,27.597-42.509,58.861-36.892,86.688c2.839,13.993,8.696,27.517,14.913,41.83
	c7.906,18.211,16.072,37.042,18.271,58.102c2.379,22.729-3.558,43.519-17.651,61.81c-10.805,14.013-26.327,26.547-47.457,38.301
	c-36.632,20.39-62.809,46.717-75.683,76.153c-9.355,21.37-8.626,37.412-8.566,38.531L255.02,512l-16.512-0.25h-13.683l-4.028-3.178
	c-1.849-1.449-45.388-36.242-47.787-82.94c-1.259-24.418,8.646-47.037,29.436-67.197c22.569-21.879,32.614-45.028,29.835-68.806
	c-3.768-32.364-30.975-65.198-76.603-92.425C93.539,160.132,92.8,111.216,92.2,71.915c-0.07-4.378-0.13-8.586-0.27-12.714
	c0-0.01,0-0.03-0.01-0.04c-0.04-1.399-0.09-2.789-0.16-4.178c0.07-1.029,0.22-2.059,0.46-3.078l14.183-0.54l14.803-0.57
	c0.02,0.38,0.04,0.75,0.06,1.129l138.682,5.267l132.805,5.038v-0.01c1.729-2.499,3.348-4.938,4.868-7.306l12.484,7.966v0.01
	l12.424,7.936l0.07,0.04C417.771,78.392,412.214,86.098,406.327,94.254z"/>
<path style="fill:#7984EB;" d="M406.327,94.254c-19.93,27.597-42.509,58.861-36.892,86.688c2.839,13.993,8.696,27.517,14.913,41.83
	c7.906,18.211,16.072,37.042,18.271,58.102c2.379,22.729-3.558,43.519-17.651,61.81c-10.805,14.013-26.327,26.547-47.457,38.301
	c-36.632,20.39-62.809,46.717-75.683,76.153c-9.355,21.37-8.626,37.412-8.566,38.531L255.02,512l-16.512-0.25h-0.69
	c-10.605-18.891-34.433-71.615,4.308-109.457c47.977-46.867,83.769-80.571,64.459-148.747
	c-19.301-68.177-48.336-81.88-46.637-140.941V57.192l132.805,5.038v-0.01c1.729-2.499,3.348-4.938,4.868-7.306l12.484,7.966v0.01
	l12.424,7.936l0.07,0.04C417.771,78.392,412.214,86.098,406.327,94.254z"/>
<path style="fill:#8B8992;" d="M428.176,56.303c0,5.018-1.969,9.885-5.647,14.523c-6.337,7.956-17.741,15.223-32.984,21.38
	c-7.017,2.839-14.853,5.437-23.379,7.766c-28.956,7.896-65.938,12.634-106.218,12.634c-56.942,0-107.268-9.465-137.703-23.948
	c-5.777-2.749-10.845-5.677-15.093-8.756c-8.766-6.357-14.103-13.343-15.223-20.7c0-0.01,0-0.03-0.01-0.04
	c-0.14-0.95-0.21-1.909-0.21-2.859c0-0.44,0.02-0.88,0.05-1.319c0.07-1.029,0.22-2.059,0.46-3.078
	C98.907,22.869,171.451,0,259.948,0c8.126,0,16.122,0.19,23.938,0.57C365.457,4.458,428.176,27.926,428.176,56.303z"/>
<g>
	<path style="fill:#C7C5CA;" d="M320.538,174.275c-11.774,5.197-25.777,9.555-41.35,12.994c-0.46,0.1-0.92,0.2-1.379,0.3
		c-25.837,5.587-55.933,8.616-87.417,8.616c-43.159,0-83.949-5.697-114.844-16.032c-46.147-15.442-55.833-36.292-55.833-51.065
		c0-12.384,6.957-30.245,40.1-44.988l12.194,27.397c-16.362,7.276-22.309,14.513-22.309,17.591c0,4.178,9.605,14.003,35.363,22.629
		c27.916,9.335,65.318,14.483,105.329,14.483c26.297,0,51.845-2.319,74.064-6.547c0.73-0.14,1.459-0.28,2.179-0.43
		c16.122-3.158,30.385-7.356,41.8-12.384L320.538,174.275z"/>
	<path style="fill:#C7C5CA;" d="M492.285,276.465c0,14.773-9.685,35.623-55.833,51.065c-30.895,10.335-71.685,16.032-114.844,16.032
		c-8.846,0-17.581-0.24-26.137-0.71c-40.93-2.229-77.892-9.685-104.009-21.2l12.104-27.437
		c24.938,10.995,63.569,17.971,105.189,19.171c4.258,0.13,8.546,0.19,12.854,0.19c40.01,0,77.412-5.138,105.329-14.483
		c25.757-8.626,35.363-18.451,35.363-22.629c0-3.078-5.947-10.315-22.309-17.591l12.194-27.397
		C485.328,246.22,492.285,264.081,492.285,276.465z"/>
</g>
<path style="fill:#626169;" d="M366.166,99.971c-28.956,7.896-65.938,12.634-106.218,12.634V0.57h23.938
	c81.57,3.888,144.29,27.357,144.29,55.733c0,5.018-1.969,9.885-5.647,14.523c-6.337,7.956-17.741,15.223-32.984,21.38
	C382.528,95.044,374.692,97.642,366.166,99.971z"/>
<g>
	<path style="fill:#ADACB2;" d="M492.285,276.465c0,14.773-9.685,35.623-55.833,51.065c-30.895,10.335-71.685,16.032-114.844,16.032
		c-8.846,0-17.581-0.24-26.137-0.71c5.937-9.325,10.495-19.001,13.284-29.466c4.258,0.13,8.546,0.19,12.854,0.19
		c40.01,0,77.412-5.138,105.329-14.483c25.757-8.626,35.363-18.451,35.363-22.629c0-3.078-5.947-10.315-22.309-17.591l12.194-27.397
		C485.328,246.22,492.285,264.081,492.285,276.465z"/>
	<path style="fill:#ADACB2;" d="M320.538,174.275c-11.774,5.197-25.777,9.555-41.35,12.994c-4.818-9.525-9.196-18.411-12.554-28.046
		c16.122-3.158,30.385-7.356,41.8-12.384L320.538,174.275z"/>
</g>
<g>
</g>
<g>
</g>
<g>
</g>
<g>
</g>
<g>
</g>
<g>
</g>
<g>
</g>
<g>
</g>
<g>
</g>
<g>
</g>
<g>
</g>
<g>
</g>
<g>
</g>
<g>
</g>
<g>
</g>
</svg>
