<svg id="Layer_1" data-name="Layer 1" xmlns="http://www.w3.org/2000/svg" viewBox="0 0 200 200"><defs><style>.cls-1{fill:#a3a3a3;}</style></defs><title>Artboard 20</title><path class="cls-1" d="M164.91,95H41.09a5,5,0,0,1,0-10H164.91a20,20,0,1,0-20-20,5,5,0,0,1-10,0,30,30,0,1,1,30,30Z"/><path class="cls-1" d="M152.91,165a30,30,0,0,1-30-30,5,5,0,0,1,10,0,20,20,0,1,0,20-20H10.09a5,5,0,0,1,0-10H152.91a30,30,0,0,1,0,60Z"/><path class="cls-1" d="M88.65,72.75H22.8a2.5,2.5,0,0,1,0-5H88.65a2.5,2.5,0,0,1,0,5Z"/><path class="cls-1" d="M108.65,130.75H42.8a2.5,2.5,0,0,1,0-5h65.85a2.5,2.5,0,1,1,0,5Z"/></svg>