<?xml version="1.0" encoding="utf-8"?>
<svg version="1.1" id="Layer_1" x="0px" y="0px" viewBox="0 0 492.4 619.5" style="enable-background:new 0 0 492.4 619.5" width="49.24px" height="61.95px" xmlns="http://www.w3.org/2000/svg">
  <g>
    <g>
      <path fill="#020203" d="M133.3,0c-3.2,0.1-6.6,1.5-10.5,4.5c-9.5-3.6-18.7-4.9-27,2.5c-12.7-1.6-16.9,1.7-20,5.7 C73,12.6,54.9,9.8,46.6,22c-20.9-2.4-27.5,12.1-20,25.7c-4.3,6.5-8.7,12.9,1.3,25.3c-3.5,6.9-1.3,14.4,7,23.5 c-2.2,9.7,2.1,16.6,9.9,21.9c-1.4,13.3,12.4,21,16.5,23.8c1.6,7.7,4.9,15,20.7,19.1c2.6,11.5,12.1,13.5,21.3,16 c-30.4,17.4-56.4,40.3-56.2,96.4l-4.4,7.8c-34.8,20.9-66.1,87.9-17.2,142.4c3.2,17.1,8.6,29.3,13.3,42.9 c7.1,54.6,53.8,80.2,66.1,83.2c18,13.5,37.2,26.4,63.2,35.3c24.5,24.9,51,34.4,77.7,34.3c0.4,0,0.8,0,1.2,0 c26.7,0,53.2-9.5,77.7-34.3c26-9,45.2-21.8,63.2-35.3c12.3-3,58.9-28.6,66.1-83.2c4.8-13.6,10.1-25.8,13.3-42.9 c49-54.5,17.7-121.5-17.2-142.4l-4.5-7.8c0.2-56.1-25.9-79-56.2-96.4c9.2-2.4,18.7-4.4,21.3-16c15.8-4,19.1-11.3,20.7-19.1 c4.1-2.8,17.9-10.5,16.5-23.8c7.7-5.3,12-12.2,9.9-21.9c8.3-9.1,10.5-16.6,7-23.5c10-12.4,5.6-18.8,1.3-25.3 c7.5-13.6,0.9-28.1-20-25.7c-8.3-12.2-26.4-9.4-29.2-9.4c-3.1-3.9-7.3-7.3-20-5.7c-8.2-7.4-17.5-6.1-27-2.5 c-11.3-8.8-18.8-1.7-27.3,0.9C328.6,1,325.4,7,318.7,9.5c-14.9-3.1-19.5,3.7-26.6,10.8l-0.5-0.2c-2.5-1.2-5.3-1.1-7.8,0.1v0 c-22.5,13.1-33.7,39.7-37.6,53.3c-4-13.7-15.1-40.3-37.6-53.3l-0.4-0.2c-2.5-1.1-5.4-1-7.8,0.3l-0.1,0.1 c-7.2-7.1-11.7-13.9-26.6-10.8c-6.7-2.5-9.8-8.5-23.5-4.1c-5.6-1.7-8.9-5.6-15-5.4L133.3,0z"/>
    </g>
    <path fill="#6ABF4B" d="M88.9,57.7c59.7,30.3,94.4,54.8,113.4,75.7c-9.7,38.4-60.5,40.2-79.1,39.1c3.8-1.7,7-3.8,8.1-7 c-4.7-3.3-21.2-0.3-32.7-6.7c4.4-0.9,6.5-1.8,8.6-5c-10.9-3.4-22.6-6.4-29.5-12c3.7,0,7.2,0.8,12.1-2.5C80,134,69.6,129.9,61.5,122 c5-0.1,10.5,0,12.1-1.9c-8.9-5.5-16.5-11.5-22.7-18.1c7.1,0.8,10,0.1,11.8-1.1c-6.8-6.8-15.3-12.6-19.4-21c5.2,1.8,10,2.5,13.5-0.2 c-2.3-5.1-12.1-8.1-17.8-20c5.5,0.5,11.4,1.2,12.5,0c-2.6-10.3-7-16.1-11.3-22.1c11.8-0.2,29.7,0,28.9-0.9l-7.3-7.4 c11.5-3.1,23.3,0.5,31.9,3.1c3.8-3-0.1-6.8-4.8-10.6c9.8,1.3,18.7,3.5,26.7,6.6c4.3-3.8-2.8-7.6-6.2-11.4 c15.2,2.8,21.6,6.8,28,10.8c4.6-4.4,0.3-8.1-2.9-11.9c11.4,4.2,17.3,9.5,23.5,14.9c2.1-2.8,5.3-4.8,1.4-11.6 c8.1,4.6,14.2,10,18.7,16.1c5-3.1,3-7.5,3-11.4c8.4,6.8,13.8,13.9,20.3,21c1.3-0.9,2.5-4.2,3.5-9.2c20.1,19.2,48.5,67.6,7.3,86.8 C177.3,93.9,135.4,73.2,88.9,57.7L88.9,57.7z"/>
    <path fill="#6ABF4B" d="M405.1,57.7c-59.7,30.3-94.4,54.8-113.4,75.7c9.7,38.4,60.5,40.2,79.1,39.1c-3.8-1.7-7-3.8-8.1-7 c4.7-3.3,21.2-0.3,32.7-6.7c-4.4-0.9-6.5-1.8-8.6-5c10.9-3.4,22.6-6.4,29.5-12c-3.7,0-7.2,0.8-12.1-2.5c9.8-5.2,20.2-9.3,28.3-17.2 c-5-0.1-10.5,0-12.1-1.9c8.9-5.5,16.5-11.5,22.7-18.1c-7.1,0.8-10,0.1-11.8-1.1c6.8-6.8,15.3-12.6,19.4-21 c-5.2,1.8-10,2.5-13.5-0.2c2.3-5.1,12.1-8.1,17.8-20c-5.5,0.5-11.4,1.2-12.5,0c2.6-10.3,7-16.1,11.3-22.1 c-11.8-0.2-29.7,0-28.9-0.9l7.3-7.4c-11.5-3.1-23.4,0.5-31.9,3.1c-3.8-3,0.1-6.8,4.8-10.6c-9.8,1.3-18.7,3.5-26.7,6.6 c-4.3-3.8,2.8-7.6,6.2-11.4c-15.2,2.8-21.6,6.8-28,10.8c-4.6-4.4-0.3-8.1,2.9-11.9c-11.4,4.2-17.3,9.5-23.5,14.9 c-2.1-2.8-5.3-4.8-1.4-11.6c-8.1,4.6-14.2,10-18.7,16.1c-5-3.1-3-7.5-3-11.4c-8.4,6.8-13.8,13.9-20.3,21c-1.3-0.9-2.5-4.2-3.5-9.2 c-20.1,19.2-48.5,67.6-7.3,86.8C316.8,93.9,358.7,73.2,405.1,57.7L405.1,57.7z"/>
    <g>
      <path fill="#C31C4A" d="M319.2,449.1c0.2,35.9-31.6,65.1-71.1,65.3c-39.5,0.2-71.7-28.7-71.9-64.6c0-0.2,0-0.5,0-0.7 c-0.2-35.9,31.6-65.1,71.1-65.3c39.5-0.2,71.7,28.7,71.9,64.6C319.2,448.6,319.2,448.8,319.2,449.1z"/>
      <g>
        <path fill="#C31C4A" d="M207.7,263.5c29.6,19.1,35,62.5,11.9,96.8c-23,34.3-65.7,46.7-95.4,27.6l0,0c-29.6-19.1-35-62.5-11.9-96.8 C135.4,256.8,178.1,244.4,207.7,263.5L207.7,263.5z"/>
        <path fill="#C31C4A" d="M287.7,260.1c-29.6,19.1-35,62.5-11.9,96.8c23,34.3,65.7,46.7,95.4,27.6l0,0c29.6-19.1,35-62.5,11.9-96.8 C360,253.3,317.3,241,287.7,260.1L287.7,260.1z"/>
      </g>
      <g>
        <path fill="#C31C4A" d="M61.5,295c32-8.4,10.8,130.3-15.2,119C17.6,391.3,8.4,324.8,61.5,295z"/>
        <path fill="#C31C4A" d="M431.1,293.3c-32-8.4-10.8,130.3,15.2,119C475,389.5,484.2,323.1,431.1,293.3L431.1,293.3z"/>
      </g>
      <path fill="#C31C4A" d="M323.8,189.7c55.2-9.2,101.1,23.1,99.3,82.1C421.3,294.4,303.5,193.1,323.8,189.7z"/>
      <path fill="#C31C4A" d="M171.3,188c-55.2-9.2-101.1,23.1-99.3,82.1C73.9,292.7,191.7,191.3,171.3,188z"/>
      <path fill="#C31C4A" d="M247.4,174.2c-32.9-0.8-64.6,24.1-64.6,38.5c-0.1,17.6,26,35.6,64.9,36c39.6,0.3,64.9-14.4,65.1-32.5 C312.8,195.7,276.6,173.9,247.4,174.2L247.4,174.2z"/>
      <path fill="#C31C4A" d="M249.9,534.5c28.7-1.2,67.3,9.1,67.3,22.8c0.5,13.3-35,43.4-69.2,42.9c-35.5,1.5-70.3-28.7-69.9-39.1 C177.6,545.8,221.4,533.8,249.9,534.5L249.9,534.5z"/>
      <g>
        <path fill="#C31C4A" d="M143.6,453.2c20.4,24.3,29.8,66.9,12.7,79.5c-16.1,9.6-55.4,5.6-83.2-33.8c-18.8-33.1-16.4-66.8-3.2-76.7 C89.7,410.3,120.1,426.3,143.6,453.2L143.6,453.2z"/>
        <path fill="#C31C4A" d="M349.5,445.5c-22.1,25.5-34.4,72.1-18.3,87.1c15.4,11.6,56.9,10,87.5-31.8c22.2-28.1,14.8-75,2.1-87.5 C401.9,398.9,374.8,417.3,349.5,445.5L349.5,445.5z"/>
      </g>
    </g>
  </g>
</svg>
